<svg xmlns="http://www.w3.org/2000/svg" width="840" height="314" viewBox="0 0 840 314" role="img" aria-labelledby="t"><title id="t">In order to progress we must recognize our ignorance and leave room for doubt. (Richard Feynman)</title><defs><linearGradient id="g0" x1="0" x2="1" y1="0" y2="0"><stop offset="0" stop-color="#fff"/><stop offset=".84" stop-color="#fff"/><stop offset="1" stop-color="#fff" stop-opacity="0"/></linearGradient><mask id="m0" maskUnits="userSpaceOnUse" x="0" y="0" width="840" height="314"><g transform="translate(0 122.8) skewX(-22) translate(0 -122.8)"><rect x="8.9" y="8.5" width="575.5" height="114.3" fill="url(#g0)"><animateTransform attributeName="transform" type="translate" dur="0.459s" fill="freeze" calcMode="spline" keyTimes="0;0.2177;1" values="-575.5 0;-575.5 0;0 0" keySplines="0 0 1 1;.35 .1 .45 1"/></rect></g></mask><linearGradient id="g1" x1="0" x2="1" y1="0" y2="0"><stop offset="0" stop-color="#fff"/><stop offset=".89" stop-color="#fff"/><stop offset="1" stop-color="#fff" stop-opacity="0"/></linearGradient><mask id="m1" maskUnits="userSpaceOnUse" x="0" y="0" width="840" height="314"><g transform="translate(0 208.8) skewX(-22) translate(0 -208.8)"><rect x="50.6" y="112.6" width="799.6" height="96.2" fill="url(#g1)"><animateTransform attributeName="transform" type="translate" dur="0.945s" fill="freeze" calcMode="spline" keyTimes="0;0.4176;1" values="-799.6 0;-799.6 0;0 0" keySplines="0 0 1 1;.35 .1 .45 1"/></rect></g></mask><linearGradient id="g2" x1="0" x2="1" y1="0" y2="0"><stop offset="0" stop-color="#fff"/><stop offset=".87" stop-color="#fff"/><stop offset="1" stop-color="#fff" stop-opacity="0"/></linearGradient><mask id="m2" maskUnits="userSpaceOnUse" x="0" y="0" width="840" height="314"><g transform="translate(0 301.5) skewX(-22) translate(0 -301.5)"><rect x="70.9" y="174.7" width="707.3" height="126.8" fill="url(#g2)"><animateTransform attributeName="transform" type="translate" dur="1.303s" fill="freeze" calcMode="spline" keyTimes="0;0.6494;1" values="-707.3 0;-707.3 0;0 0" keySplines="0 0 1 1;.35 .1 .45 1"/></rect></g></mask></defs><g mask="url(#m0)"><path d="M67.1 71.7q.6 0 1.3-.5q.6-.4 1-.9q1.1-1.3 2.8-3.7q1.7-2.5 3.7-5.6q2-3 4.2-6.4q2.1-3.4 4-6.6q1.8-3.2 3.2-5.9q1.4-2.7 1.9-4.4q.2-.5.2-1q0-.9-2.3-.9q-1 0-2.3.1q-1.2.1-2.4.3l-.2-.1q.2-.7.5-1q3.6-.2 7-.4q3.5-.2 5.9-.6q.4.2.4.7q0 .1-.5.3q-.6.2-1.1.8q-.4.6-.8 1.3q-1.8 3.4-4.1 7.4q-2.2 4.1-4.8 8.5q-2.5 4.4-5.2 8.7q-2.7 4.3-5.1 8.1q-.7.9-1.6 1.4q-.8.5-1.6.7q-.9.2-2 .2q-1.1.1-2 0q-.1-.1-.1-.5zM115.7 61q-1.5 2.2-3.5 4.3q-2 2.2-4.3 3.9q-2.3 1.7-4.6 2.8q-2.3 1.1-4.5 1.1q-1.1 0-1.9-.3q-.9-.3-.9-1.5q0-1.2.9-3q.8-1.8 2-3.9q1.1-2 2.4-4.1q1.2-2.2 2-3.9q.1-.5 0-.8q-.1-.3-.5 0q-1 .6-2.2 1.6q-1.3 1-2.6 2.2q-1.4 1.1-2.6 2.3q-1.2 1.2-2 2.1q-1.4 2.2-2.3 4q-1 1.7-2.5 3.9q-.3.6-.5.6q-.4 0-.7-1q-.3-.9-.3-1.2q0-.7 1.1-2.1q1-1.3 2.3-2.9q1.4-2.7 2.8-5.7q1.5-3 2.5-5.4q.2-.4.8-.4q.5 0 .9.4q.4.4.4.9q0 .4-1.2 2.4q-1.3 1.9-2.4 4.6q1.6-1.5 3.5-3.1q1.9-1.6 3.6-3q1.8-1.3 3.1-2.2q1.3-.9 1.8-.9q.4 0 .7.4q.3.4.3.7q0 .4-.5 1q-.9 1.4-2.3 3.5q-1.3 2.1-2.5 4.4q-1.3 2.2-2.1 4.3q-.9 2-.9 3.2q0 1 .4 1.4q.5.4 1.4.4q1.4 0 3.4-1.1q2-1.1 4-2.8q2.1-1.6 4-3.7q1.9-2 3.1-3.9q.1-.2.5-.1q.3.1-.1.6zM156.4 57.6q-1.4 1.9-3.5 3.5q-2.1 1.5-4.7 1.5q-1.5 0-2.9-.7q-1.4-.7-2.3-2.1q-.5 1.3-1.5 3.1q-.9 1.7-2.2 3.4q-1.3 1.8-2.8 3.2q-1.6 1.5-3.4 2.4q-1.5.7-2.5.7q-3.1 0-3.1-2.7q0-1.6.5-3.2q.6-1.6 1.4-3.1q.9-1.5 1.9-2.9q1-1.4 1.8-2.2q1.8-2 4.1-3.3q2.3-1.4 4.9-1.6q.2-.7.5-1.6q.4-.9 1.2-1.1q.4-.1.9-.1q.4-.1.7-.3q.3-.2.5 0q.3.1.1.4q-.6 1-.9 2.4q-.3 1.4-.3 3.1q0 2.4.9 4q.9 1.5 3.1 1.5q2.2 0 4-1.5q1.8-1.4 3-3.1q.2-.4.6-.3q.3.2 0 .6zM142.4 58.1q-.2-.7-.3-1.7q-.1-1.1-.1-2q0-.4-.3-.4q-.9 0-2 .6q-1 .7-2 1.7q-1 1.1-2 2.4q-1.1 1.4-1.9 2.8q-1.1 1.9-2 4.1q-.9 2.2-.8 4.1q0 .6.2 1.1q.2.5 1 .5q1.4 0 3.1-1.6q1.7-1.6 3.2-3.8q1.6-2.1 2.6-4.4q1.1-2.2 1.3-3.4zM168.3 54.7q-.5.6-1.1 1.4q-.5.9-.7 1.3q-.1.2-.3.2q-.1 0-.3-.2q-.2-.3-.5-.6q-.3-.3-.8-.5q-.5-.3-1.4-.3q-1.1 0-2.5.8q-1.3.8-2.3 1.7q-1.7 1.3-2.9 3q-1.2 1.6-2.3 3.3q-1.1 1.8-2.2 3.6q-1 1.8-2.2 3.7q-.1.2-.5.2q-.2 0-.7-.5q-.6-.5-.6-.7q0-.5.6-1.6q1.4-2.3 2.8-4.8q1.4-2.4 2.6-4.5q1.3-2.1 2.2-3.7q.9-1.6 1.3-2.3q.4-.8.6-.8q.1 0 .8.4q.7.4.7 1.2q0 .3-.3.8q-.3.6-.7 1.3q-.4.6-.7 1.2q-.3.6-.5.9q-.3.4-.1.4q.2 0 .4-.3q.9-.8 2.1-1.8q1.2-1.1 2.6-1.9q1.4-.9 2.7-1.5q1.3-.6 2.3-.6q.8 0 1.3.4q.6.3.6.8zM219 15.5q0 .5-.6 1q-.5.5-.6 1.4q-.2.6-.6.6q-.3 0-.5-.1q-.3-.1-.7-.3q-.4-.2-.9-.3q-.6-.1-1.6-.1q-1.4 0-2.9.4q-1.4.3-2.6 1.1q-2.4 1.5-5.2 4.3q-2.7 2.9-5 6.2q-5.7 8.1-10 15.2q-4.3 7.1-7.2 12.7q-2.9 5.6-4.3 9.6q-1.5 4-1.5 5.8q0 1.5.7 2.4q.6.9 2.1.9q2.3 0 4.3-1.4q2.1-1.5 4-3.6q1.9-2.2 3.4-4.8q1.5-2.7 2.6-5q.2-.3.6-.2q.4.1-.1.7q-1.5 3-3.2 5.8q-1.8 2.8-3.7 4.8q-1.9 2.1-4 3.3q-2.1 1.2-4.1 1.2q-2.3 0-3.4-1.2q-1.1-1.3-1.1-3.2q0-2.1.8-4.4q.8-2.3 2.5-5.7q-2.4 2.9-4.2 4.8q-1.8 2-3.1 3.1q-1.4 1.1-2.3 1.5q-1 .5-1.8.5q-1.2 0-1.6-.6q-.4-.7-.4-1.7q0-.8.4-2q.4-1.2 1.2-2.4q3.1-5.1 7-8.3q3.9-3.3 9.6-4.3q4-7.1 7.8-12.8q3.7-5.7 8.1-11.2q3.7-4.5 7.3-8q3.6-3.5 7.4-5.3q2.9-1.4 5.1-1.4q1 0 1.6.3q.7.2.7.7zM180.3 54.5q-3.3.1-5 1.2q-1.7 1.2-3.1 2.9q-3.2 4-4.6 6.8q-1.3 2.9-1.3 4.2q0 .4.3.6q.3.2.5.2q.6 0 2.2-1.3q1.5-1.3 3.5-3.4q1.9-2.2 3.9-5.1q2.1-2.9 3.6-6.1zM209.6 61.9q-1.4 1.8-3.4 3.7q-2 1.9-4.4 3.5q-2.3 1.5-4.8 2.5q-2.5 1-5 1q-4 0-4-3.6q0-2.4 1.2-5.1q1.3-2.8 3.2-5.1q2-2.4 4.3-3.9q2.4-1.6 4.5-1.6q1.2 0 1.6.4q.5.5.5 1.1q0 1-.6 2.2q-.7 1.2-1.9 2.3q-1.3 1.1-3.3 1.8q-1.9.7-4.6.7q-.5.8-1 2.4q-.5 1.7-.5 3.4q0 3.5 3.2 3.5q1.9 0 4-1q2.1-.9 4-2.3q2-1.4 3.6-3.1q1.7-1.6 2.8-3.1q.2-.1.4-.1q.2.1.2.4zM200.7 55.3q0-1.1-1.1-1.1q-.9 0-1.8.6q-.9.6-1.7 1.6q-.9 1.1-1.6 2.3q-.8 1.1-1.3 2.3q.2 0 .6.1q.4 0 .7 0q2.4 0 4.3-1.7q1.9-1.8 1.9-4.1zM224.5 54.7q-.5.6-1.1 1.4q-.5.9-.7 1.3q-.1.2-.3.2q-.1 0-.3-.2q-.2-.3-.5-.6q-.3-.3-.8-.5q-.5-.3-1.4-.3q-1.1 0-2.5.8q-1.3.8-2.4 1.7q-1.6 1.3-2.8 3q-1.2 1.6-2.3 3.3q-1.2 1.8-2.2 3.6q-1 1.8-2.2 3.7q-.1.2-.5.2q-.2 0-.7-.5q-.6-.5-.6-.7q0-.5.6-1.6q1.4-2.3 2.8-4.8q1.4-2.4 2.6-4.5q1.3-2.1 2.2-3.7q.9-1.6 1.3-2.3q.4-.8.6-.8q.1 0 .8.4q.7.4.7 1.2q0 .3-.3.8q-.3.6-.7 1.3q-.4.6-.7 1.2q-.3.6-.5.9q-.3.4-.1.4q.2 0 .4-.3q.9-.8 2.1-1.8q1.2-1.1 2.6-1.9q1.4-.9 2.7-1.5q1.3-.6 2.3-.6q.8 0 1.3.4q.6.3.6.8zM259 41q-.7.1-1.5.6q-.9.5-1.3 1.2q-2 2.7-3.8 5.7q-1.8 2.9-3.5 5.9h10.5q.3.2.3.3q0 .2-.2.3q-.7 0-2 0q-1.4.1-3 .2q-1.6.1-3.3.1q-1.7.1-3 .2q-2.4 4.3-3.7 7.2q-1.2 3-1.2 5.2q0 3.1 2.8 3.1q1.3 0 3.1-.7q1.7-.8 3.7-2q.2-.2.5.1q.2.3-.2.5q-2.9 1.8-5.3 2.7q-2.5.8-5.1.8q-1.3 0-2.3-.8q-1.1-.8-1.1-2.7q0-1.7 1.6-5.1q1.5-3.3 4.5-8.1q-1 .1-2.5.2q-1.5.1-1.8.1q-.4 0-.4-.3q.3-.6 1.1-1.2l4.3-.1q.8-1.3 1.7-2.8q1-1.6 1.9-3.2q.9-1.6 1.9-3q1-1.5 1.8-2.8q.9-.4 2.6-1.1q1.6-.7 2.9-1.1q.2 0 .2.2q.1.2-.2.4zM284.2 57.6q-1.4 1.9-3.5 3.5q-2.1 1.5-4.7 1.5q-1.5 0-2.9-.7q-1.4-.7-2.2-2.1q-.6 1.3-1.5 3.1q-1 1.7-2.2 3.4q-1.3 1.8-2.9 3.2q-1.6 1.5-3.4 2.4q-1.5.7-2.5.7q-3.1 0-3.1-2.7q0-1.6.6-3.2q.5-1.6 1.4-3.1q.8-1.5 1.8-2.9q1-1.4 1.8-2.2q1.8-2 4.1-3.3q2.3-1.4 5-1.6q.1-.7.5-1.6q.3-.9 1.2-1.1q.4-.1.8-.1q.4-.1.8-.3q.2-.2.5 0q.2.1.1.4q-.6 1-.9 2.4q-.3 1.4-.3 3.1q0 2.4.9 4q.9 1.5 3.1 1.5q2.2 0 4-1.5q1.8-1.4 2.9-3.1q.2-.4.6-.3q.4.2 0 .6zM270.2 58.1q-.2-.7-.2-1.7q-.1-1.1-.1-2q0-.4-.4-.4q-.9 0-1.9.6q-1 .7-2.1 1.7q-1 1.1-2 2.4q-1 1.4-1.9 2.8q-1.1 1.9-2 4.1q-.9 2.2-.8 4.1q0 .6.2 1.1q.2.5 1 .5q1.5 0 3.2-1.6q1.7-1.6 3.2-3.8q1.5-2.1 2.6-4.4q1-2.2 1.2-3.4zM319 58.7q-4.5 5.7-9.6 8.4q-5.2 2.8-10.8 4.1q-2 .4-3.4.6q-1.4.3-2.9.5q-2.5 4.2-4.7 8.3q-2.2 4.2-4.4 8.2q-3.2 6.1-5.8 11.4q-2.7 5.4-5.7 10.6q-.6 1.1-1.7 1.6q-1 .6-2.3 1q-1.4.4-3.2.8q-1.8.5-3.9 1.2q-.5.3-.6-.1q-.1-.4.4-.5q2.2-.9 3.8-1.7q1.5-.8 2.7-1.9q1.3-1.1 2.4-2.6q1.1-1.6 2.5-3.9q1.5-2.4 3.6-5.9q2-3.5 4.6-7.8q2.5-4.2 5.3-9q2.8-4.8 5.7-9.7q-.5-.1-.5-.9q0-.5.6-.6q.5-.1.9-.2l3.9-6.3q2.7-4.5 5.4-9.2q2.7-4.8 5.6-8.5q.4-.4 1-.5q.1-.1.6-.2q.6-.1 1.1-.2q.5-.1.9-.1q.4 0 .5 0q.3 0 .3.1q0 .3-.4.6q-1.8 1.6-3.1 3.1q-1.4 1.5-2.6 2.9q-1.2 1.4-2.2 2.9q-1.1 1.4-2.2 3.1q.9-.9 1.9-1.9q1-1.1 2-1.9q1-.9 2.1-1.4q1-.6 1.8-.6q.9 0 1.4.5q.6.6.6 1.7q0 .9-.7 2.7q-.8 1.8-2.5 4q-1.7 2.2-4.6 4.6q-2.9 2.3-7.3 4.4q2.3-.3 5.2-.8q2.8-.6 5.9-1.9q3.1-1.3 6.1-3.6q3.1-2.2 5.8-5.8q.1-.2.3-.1q.2 0 .2.5zM307.1 56.4q0-.3-.1-.8q-.2-.5-.9-.5q-.4 0-1.3.5q-.8.4-1.8 1.2q-1 .8-2.1 2q-1.1 1.2-2.1 2.7q-1.5 2-2.8 4.3q-1.4 2.4-2.8 4.8q2.8-.7 5.4-2.5q2.5-1.8 4.4-3.9q1.9-2.1 3-4.3q1.1-2.1 1.1-3.5zM331.8 54.7q-.5.6-1 1.4q-.6.9-.8 1.3q0 .2-.3.2q-.1 0-.2-.2q-.2-.3-.5-.6q-.3-.3-.8-.5q-.5-.3-1.5-.3q-1.1 0-2.4.8q-1.4.8-2.4 1.7q-1.6 1.3-2.9 3q-1.2 1.6-2.3 3.3q-1.1 1.8-2.1 3.6q-1 1.8-2.2 3.7q-.1.2-.5.2q-.2 0-.8-.5q-.5-.5-.5-.7q0-.5.6-1.6q1.3-2.3 2.7-4.8q1.4-2.4 2.7-4.5q1.2-2.1 2.1-3.7q1-1.6 1.3-2.3q.4-.8.6-.8q.2 0 .9.4q.6.4.6 1.2q0 .3-.3.8q-.2.6-.6 1.3q-.4.6-.8 1.2q-.3.6-.5.9q-.2.4-.1.4q.2 0 .5-.3q.8-.8 2.1-1.8q1.2-1.1 2.6-1.9q1.3-.9 2.6-1.5q1.3-.6 2.4-.6q.7 0 1.3.4q.5.3.5.8zM356.9 57.6q-1.4 1.9-3.5 3.5q-2.1 1.5-4.7 1.5q-1.5 0-2.9-.7q-1.4-.7-2.2-2.1q-.6 1.3-1.6 3.1q-.9 1.7-2.2 3.4q-1.2 1.8-2.8 3.2q-1.6 1.5-3.4 2.4q-1.5.7-2.5.7q-3.1 0-3.1-2.7q0-1.6.6-3.2q.5-1.6 1.4-3.1q.8-1.5 1.8-2.9q1-1.4 1.8-2.2q1.8-2 4.1-3.3q2.3-1.4 4.9-1.6q.2-.7.5-1.6q.4-.9 1.2-1.1q.5-.1.9-.1q.4-.1.7-.3q.3-.2.6 0q.2.1 0 .4q-.6 1-.9 2.4q-.2 1.4-.2 3.1q0 2.4.8 4q.9 1.5 3.1 1.5q2.3 0 4-1.5q1.8-1.4 3-3.1q.2-.4.6-.3q.4.2 0 .6zM342.9 58.1q-.2-.7-.3-1.7q-.1-1.1-.1-2q0-.4-.3-.4q-.9 0-2 .6q-1 .7-2 1.7q-1 1.1-2 2.4q-1 1.4-1.9 2.8q-1.1 1.9-2 4.1q-.9 2.2-.8 4.1q0 .6.2 1.1q.2.5 1 .5q1.4 0 3.1-1.6q1.7-1.6 3.3-3.8q1.5-2.1 2.6-4.4q1-2.2 1.2-3.4zM370.4 49.3q0 .8-.4 1.5q-4.2 7.9-7.6 14q-3.4 6.1-6.5 11.2q-3.1 5.2-6 10q-3 4.8-6.3 10.2q-2.8 4.4-5.9 8.1q-3.2 3.8-7.1 6.6q-3.9 2.7-8.4 4.3q-4.6 1.6-10 1.6q-4 0-6.6-1.1q-2.6-1-4.1-2.8q-1.5-1.8-2-4.1q-.6-2.3-.6-4.8q0-1 .1-2.1q.2-1.2.5-1.9q0-.3.3-.3q.2 0 .2.4q-.1.6-.3 1.4q-.2.8-.2 1.8q0 3 1.3 5.1q1.3 2.2 3.5 3.6q2.3 1.4 5.4 2.1q3 .7 6.5.7q3.6 0 7.3-1.2q3.7-1.1 7.4-3.9q3.7-2.8 7.2-7.2q3.5-4.4 6.9-10.9q2.2-4 4.7-8.6q2.5-4.6 4.7-8.8q2.3-4.2 4.2-7.6q1.8-3.4 2.6-4.9q-1.7 2.3-3.3 4.4q-1.6 2-3 3.5q-1.4 1.6-2.7 2.4q-1.2.9-2.3.9q-.7 0-1.2-.5q-.5-.5-.5-1.6q0-1.3 1-3.6q1.1-2.3 2.8-4.9q1.8-2.5 4-4.8q2.2-2.3 4.5-3.4q2-1.1 4.1-1.1q.6 0 .9.1q.7-1.2 1.4-2.3q.7-1.2 1.5-2.6q.6-1.1 1.1-1.1q.3 0 .6.8q.3.7.3 1.4zM365 54.3q-.3-.1-.7-.1q-.3 0-.6 0q-1.2 0-2.2.2q-1.1.3-1.9.9q-2.1 1.8-3.6 4q-1.6 2.2-2.6 4.4q-1 2.1-1.5 3.8q-.4 1.8-.4 2.5q0 1 .5 1q.5 0 2-1.5q1.6-1.4 3.5-3.8q1.9-2.4 3.9-5.3q2.1-3 3.6-6.1zM389.2 54.7q-.5.6-1.1 1.4q-.5.9-.7 1.3q-.1.2-.3.2q-.1 0-.3-.2q-.1-.3-.4-.6q-.3-.3-.8-.5q-.6-.3-1.5-.3q-1.1 0-2.5.8q-1.3.8-2.3 1.7q-1.6 1.3-2.9 3q-1.2 1.6-2.3 3.3q-1.1 1.8-2.1 3.6q-1.1 1.8-2.3 3.7q0 .2-.5.2q-.1 0-.7-.5q-.5-.5-.5-.7q0-.5.6-1.6q1.3-2.3 2.7-4.8q1.4-2.4 2.7-4.5q1.2-2.1 2.1-3.7q1-1.6 1.3-2.3q.4-.8.6-.8q.2 0 .8.4q.7.4.7 1.2q0 .3-.3.8q-.3.6-.7 1.3q-.3.6-.7 1.2q-.3.6-.5.9q-.2.4-.1.4q.2 0 .5-.3q.8-.8 2-1.8q1.3-1.1 2.6-1.9q1.4-.9 2.7-1.5q1.3-.6 2.3-.6q.8 0 1.4.4q.5.3.5.8zM424.9 65.3q-2.7 3.2-5.7 4.6q-3 1.4-5.1 1.9q-3 .7-5.9 1q-3 .2-5.6.2q-2.5 0-2.5-.6q0-.1.7-.7q.7-.6 1.5-.8q.9 0 1.9.1q1 .1 2.1.1q.8 0 1.7-.3q.8-.2 1.6-.9q.8-.7 1.2-1.9q.5-1.2.5-3.1q0-.9-.1-1.9q-.1-1-.4-2q-4.9 5.6-10.5 8.6q-5.5 2.9-10.1 2.9q-.6 0-1.5-.1q-.8-.1-1.5-.4q-.7-.4-1.2-1.1q-.4-.7-.4-1.9q0-1.4 1.1-4.1q1.2-2.6 3.3-5.2q2-2.6 4.7-4.5q2.6-1.9 5.5-1.9q.8 0 1.2.6q.3.5.3 1.3q0 .5-.3 1.3q-.3.9-1.1 1.7q-.7.8-1.9 1.4q-1.2.7-3 .7q-1.7 0-2.5-1q-.2-.1-.5.1q-.3.4-.9 1.3q-.6.9-1.2 2.2q-.6 1.3-1 2.7q-.4 1.4-.4 2.8q0 3.1 2.8 3.1q.9 0 2.7-.3q1.9-.3 4.3-1.5q2.4-1.1 5.4-3.3q3-2.2 6.1-6q.4-.6.4-.9q0-1.4.9-2.6q.8-1.3 2.1-2.3q1.2-1 2.5-1.6q1.3-.6 2.3-.6q.6 0 1 .3q.5.3.5 1q0 .5-.1.8q-.2.2-.6.6q-.3.3-.6.3q-.2 0-.5-.7q-.3-.8-1.3-.8q-1.7 0-2.5 1q-.9 1-.9 2.7q0 1.2.4 3.1q.3 1.9.3 3.6q0 1.7-1.2 3.5q-1.2 1.7-2.9 2.5q-.6.3-.6.6q.1.2 1.8.2q3.3 0 6.9-1.6q3.6-1.5 6.5-4.6q.4-.5.6-.3q.1.3-.3.7zM398.6 55.9q0-.3-.2-.8q-.1-.5-.9-.5q-.5 0-1.1.4q-.7.4-1.4 1.1q-.7.6-1.2 1.3q-.4.7-.6 1.2q0 .8 1.4.8q1.2 0 2.6-.9q1.4-.9 1.4-2.6zM435.3 56.4q-.3.5-.4.1q-.6-1.1-2.2-1.1q-1.2 0-2.3.7q-1.2.7-1.2 2q0 .7.4 1.4q.4.7 1.2 1.8q.7 1 1.2 2q.6 1.1.6 2.2q0 2.2-1 3.6q-1 1.4-2.4 2.2q-1.4.9-2.8 1.2q-1.5.3-2.3.3q-5.2 0-5.7-3.5q.4-.3.9-.7q.6-.3.9-.7q.1 0 .2.4q.4 1.5 1.6 2.6q1.2 1.1 2.8 1.1q.7 0 1.6-.1q1-.2 1.8-.6q.8-.5 1.4-1.3q.6-.9.6-2.3q0-1.1-.4-2.1q-.5-.9-1-1.7q-.5-.8-1-1.7q-.5-.8-.5-1.8q0-1.1.7-2.3q.7-1.1 1.8-2.1q1.1-1 2.5-1.7q1.3-.7 2.6-.7q1.3 0 1.3.9q-.2.4-.5 1q-.3.5-.4.9z" fill="#e6edf3"/></g><g mask="url(#m1)"><path d="M141.4 140.2q-1.1.4-2.7.7q-1.7.3-3.4.5q-1.8.3-3.3.5q-1.6.1-2.6.2q-.4.1-.5.4q-.1.4-.1.8q0 2.3-.7 4.7q-.6 2.4-1.6 4.6q-1 2.2-2.1 3.9q-1.2 1.8-2.4 2.8q-1.5 1.3-2.9 1.9q-1.4.7-3.3.7q-2.2 0-3.5-1.3q-1.3-1.4-1.3-3.6q0-1 .2-1.8q-1.6.9-3.6 1.9q-2 .9-3.8.9q-1 0-1.7-.6q-.6-.7-.6-2q0-1.5.9-3.5q.9-2 2.1-4q1.2-2 2.4-3.6q1.2-1.7 1.8-2.5q.3-.3.6-.7q.4-.4.9-.5q.7-.2 1.6-.4q.8-.2 1.3-.3q.4 0 .4.3q0 .1-.5.3q-.5.2-1.2.9q-1.3 1.4-2.5 3.4q-1.3 2-2.3 4q-1 2-1.6 3.8q-.6 1.7-.6 2.8q0 .5.3.9q.4.4 1 .4q.4 0 1.7-.4q1.3-.4 3.5-1.9q.8-3.3 2.4-6.5q1.6-3.2 3.8-5.7q.4-.5 1.4-1.5q1-.9 2.4-.9q.7 0 .8.5q.1.4.1.7q0 .4-.3 1.6q-.3 1.2-1.2 2.9q-.9 1.6-2.6 3.6q-1.6 2-4.3 4.2q0 1.2.2 2.4q.2 1.2.7 2.1q.5 1 1.3 1.6q.9.6 2.2.6q2.1 0 3.6-1.4q1.5-1.4 2.5-3.6q1-2.1 1.5-4.6q.5-2.6.5-4.9q0-2-.2-3.3q-.2-1.3-1.6-1.5q-.3-.3.1-.5q.5 0 1.3-.3q.7-.4 1.1-.4q.2 0 .3.2q.2.2.7.4q.6.2 1.7.4q1.1.2 3.1.2q2.5 0 5.1-.3q2.5-.4 3.5-.8q.4 0 .5.2q.1.3-.5.4zM120.1 142.7q0-.2-.1-.7q-.2-.5-.7-.5q-.4 0-1.2.7q-.7.7-1.5 2q-.8 1.4-1.6 3.5q-.8 2.1-1.2 4.9q3.4-2.8 4.9-5.4q1.4-2.7 1.4-4.5zM155.6 147.9q-1.4 1.8-3.4 3.7q-2 1.9-4.3 3.5q-2.4 1.5-4.9 2.5q-2.5 1-5 1q-4 0-4-3.6q0-2.4 1.3-5.1q1.2-2.8 3.2-5.1q1.9-2.4 4.3-3.9q2.3-1.6 4.4-1.6q1.2 0 1.7.4q.4.5.4 1.1q0 1-.6 2.2q-.6 1.2-1.9 2.3q-1.3 1.1-3.2 1.8q-2 .7-4.7.7q-.4.8-.9 2.4q-.6 1.7-.6 3.4q0 3.5 3.2 3.5q1.9 0 4-1q2.1-.9 4.1-2.3q1.9-1.4 3.6-3.1q1.6-1.6 2.7-3.1q.2-.1.4-.1q.2.1.2.4zM146.7 141.3q0-1.1-1.1-1.1q-.8 0-1.7.6q-.9.6-1.8 1.6q-.8 1.1-1.6 2.3q-.8 1.1-1.3 2.3q.2 0 .6.1q.4 0 .7 0q2.5 0 4.3-1.7q1.9-1.8 1.9-4.1zM200.8 150.7q-1.2 1.3-2.9 3.1q-1.6 1.6-3.5 3.2q-1.9 1.5-3.9 2.5q-2 1.1-3.8 1.1q-1.7 0-2.4-.7q-.7-.7-.7-2.2q0-.9 1-3q1-2.1 2.1-4.4q1.2-2.3 2.2-4.4q1-2.1 1-2.9q0-.6-.4-.6q-1.1.6-2.5 1.8q-1.4 1.1-2.8 2.5q-1.4 1.4-2.5 2.6q-1.2 1.3-1.8 2.2q-.6.8-1.1 2q-.6 1.2-1.2 2.3q-.6 1.1-1.1 1.9q-.6.7-1 .7q-.4 0-.7-.4q-.4-.4-.4-.8q0-.3.3-.9q.2-.7.9-1.6q1.1-1.5 2-3.2q.9-1.7 1.5-3.2q.7-1.4 1-2.5q.3-1 .3-1.1q0-.7-.3-.7q-.5 0-1.7 1q-1.3 1.1-2.7 2.6q-1.5 1.6-2.9 3.3q-1.4 1.7-2.3 3q-1.2 1.8-2 3.2q-.9 1.3-1.3 1.3q-.7 0-.8-.6q-.1-.6-.1-1.2q0-.6.3-1.1q2.3-3.6 4.5-7.4q2.2-3.9 4.4-7.6q.4-.8 1-.8q.4 0 .7.5q.4.5.4.9q-.6 1.7-2.1 4.1q-1.4 2.5-2.5 4.6q3.4-4 5.7-6q2.3-2 3.7-2q.9 0 .9 1.3q0 .9-.7 2.6q-.8 1.8-1.4 2.9q-.2.3 0 .3q.1-.1.3-.3q1-1.1 2.3-2.5q1.3-1.3 2.8-2.5q1.5-1.2 3-2.2q1.5-1 2.8-1.6q1.2 0 1.2 1.2q0 .3-.1.5q0 .3-.2.6q-.4.9-1.6 3.1q-1.1 2.1-2.3 4.5q-1.2 2.4-2.1 4.7q-.9 2.2-.9 3.4q0 1.7 1.6 1.7q1.5 0 3.2-1q1.7-1 3.4-2.5q1.7-1.4 3.2-3q1.4-1.5 2.5-2.7q.3-.5.6-.5q.4.1-.1.9zM224.6 147.8q-1.5 2-3.4 4.3q-2 2.2-4.1 4.1q-2.1 1.9-4.3 3.1q-2.3 1.3-4.2 1.3q-1.5 0-2.3-.8q-.8-.8-.8-2.4q0-.8.2-1.7q.3-1 .8-2.2q-.5.6-1.2 1.4q-.6.8-1.4 1.5q-.8.8-1.8 1.2q-1 .5-2.2.5q-.9 0-1.5-.6q-.6-.5-.6-1.7q0-.7.3-1.7q.3-1 1.1-2.8q.8-1.7 2.2-4.3q1.4-2.6 3.6-6.4q.4-.9.8-.9q.6 0 1.2.7q.6.8.6 1q0 .3-.5 1q-1.3 2.1-2.5 4.1q-1.2 2.1-2.1 3.9q-.9 1.7-1.4 3.1q-.6 1.4-.6 2.2q0 1.3.9 1.3q.9 0 2.4-1.3q1.5-1.4 3.5-4.5q.8-1.4 1.6-2.8q.8-1.5 1.6-2.9q.7-1.4 1.4-2.5q.7-1.2 1-1.7q.4-.6.7-.6q.3 0 .8.7q.4.7.4 1.7q0 .7-.4 1.3q-1 1.5-2.1 3q-1.2 1.5-2.1 3.1q-1 1.6-1.7 3.4q-.7 1.8-.7 3.9q0 1.9 1.8 1.9q1.2 0 2.9-.9q1.6-.9 3.6-2.5q1.9-1.6 4-3.9q2.1-2.3 4-5q.5-.2.5.4zM260.9 122.3q0 .3-.5 1.1q-.6.9-1 .9q-.2 0-.4-.1q-.3-.1-.7-.5q-1.2-1.1-3.8-2.2q-2.7-1.1-6.2-1.1q-2.6 0-5.1.9q-2.5.8-4.5 2.6q-2 1.7-3.2 4.3q-1.2 2.5-1.2 5.9q0 4.2 2.1 6.6q0 .5-.7 1q-.8.6-1.1.6q-.5 0-1.3-.8q-.7-.8-2.4-.8q-1.5 0-2.5.9q-.9 1-.9 3.1q0 .9.3 1.7q.2.9.5 1.7q.3.8.6 1.6q.3.7.3 1.5q1-1.2 1.9-2.4q.9-1.3 1.8-2.4q.3-.2 1-.6q.7-.3 1.9-.8q1.3-.4 3.2-1.1q2-.7 4.9-1.5q.6-1.2 2-3.5q1.3-2.2 2.7-4.7q1.5-2.4 2.9-4.5q1.5-2.1 2.4-3.1q.3-.3 1.5-.8q1.2-.4 1.8-.4q.2 0 .2.1q0 .2-.5.7q-.6.7-1.8 2.3q-1.2 1.6-2.7 3.7q-1.4 2.2-2.9 4.7q-1.6 2.5-2.9 4.9q3-.4 6.6-.8q3.6-.3 7.2-.5q0 .3-.2.5q-1.5.1-3.2.2q-1.8.1-3.7.4q-2 .2-3.8.4q-1.8.3-3.3.6q-.6 1-1.3 2.7q-.7 1.7-1.3 3.4q-.7 1.8-1.1 3.5q-.5 1.7-.5 2.9q0 1.5.5 2.5q.5 1 2.7 1q1.4 0 3.1-.5q1.8-.4 3-1.4q.1-.1.5 0q.5.2-.2.6q-1.8 1-3.9 1.7q-2.1.6-4.3.6q-1.6 0-3.2-.8q-1.5-.8-1.5-3.1q0-.9.2-1.9q.2-1.1.7-2.5q.5-1.5 1.5-3.5q1-2 2.5-4.8q-5.6 1.7-9.5 4.1q-3.8 2.4-5 5.5q-.3.8-.9 1.8q-.6 1-1.6 1.9q-1 .9-2.5 1.6q-1.5.6-3.5.6q-1.2 0-2.3-.7q-1.1-.7-1.1-2.7q0-.5.1-1.1q.2-.5.5-.8q.3-.1 1.1-.4q.7-.2 1-.2q.4.1.1.5q-.4.3-.4 1.2q0 1.3.8 2.2q.8.9 2.7.9q1.5 0 2.7-1q1.1-1 1.1-2.7q0-.7-.1-1.5q-.2-.8-.6-1.5q-1.4-2.5-1.4-4.3q0-1.8 1.3-3.7q1.2-1.8 4.2-3q1-.4 2.2-.4q.7 0 1.1.2q.5.1.6.1q.2 0 .1-.2q-.5-1-.6-2.3q-.2-1.2-.2-2.1q0-2.8 1-5.6q1-2.9 3.2-5.3q2.1-2.4 5.4-3.9q3.3-1.6 7.9-1.6q2.2 0 4.7.8q2.5.7 4.1 1.6q1.1.6 1.1 1.3zM289.1 140.7q-.5.6-1.1 1.4q-.5.9-.7 1.3q-.1.2-.3.2q-.1 0-.3-.2q-.2-.3-.5-.6q-.3-.3-.8-.5q-.5-.3-1.4-.3q-1.1 0-2.5.8q-1.3.8-2.4 1.7q-1.6 1.3-2.8 3q-1.2 1.6-2.3 3.3q-1.2 1.8-2.2 3.6q-1 1.8-2.2 3.7q-.1.2-.5.2q-.2 0-.7-.5q-.6-.5-.6-.7q0-.5.6-1.6q1.4-2.3 2.8-4.8q1.4-2.4 2.6-4.5q1.3-2.1 2.2-3.7q.9-1.6 1.3-2.3q.4-.8.6-.8q.1 0 .8.4q.7.4.7 1.2q0 .3-.3.8q-.3.6-.7 1.3q-.4.6-.7 1.2q-.3.6-.5.9q-.3.4-.1.4q.2 0 .4-.3q.9-.8 2.1-1.8q1.2-1.1 2.6-1.9q1.4-.9 2.7-1.5q1.3-.6 2.3-.6q.8 0 1.3.4q.6.3.6.8zM307.4 147.9q-1.5 1.8-3.5 3.7q-2 1.9-4.3 3.5q-2.4 1.5-4.9 2.5q-2.5 1-4.9 1q-4 0-4-3.6q0-2.4 1.2-5.1q1.2-2.8 3.2-5.1q1.9-2.4 4.3-3.9q2.3-1.6 4.4-1.6q1.2 0 1.7.4q.5.5.5 1.1q0 1-.7 2.2q-.6 1.2-1.9 2.3q-1.3 1.1-3.2 1.8q-2 .7-4.7.7q-.4.8-.9 2.4q-.5 1.7-.5 3.4q0 3.5 3.1 3.5q2 0 4-1q2.1-.9 4.1-2.3q1.9-1.4 3.6-3.1q1.7-1.6 2.8-3.1q.1-.1.3-.1q.3.1.3.4zM298.4 141.3q0-1.1-1.1-1.1q-.8 0-1.7.6q-.9.6-1.8 1.6q-.8 1.1-1.6 2.3q-.7 1.1-1.2 2.3q.1 0 .5.1q.5 0 .7 0q2.5 0 4.4-1.7q1.8-1.8 1.8-4.1zM325.5 146.6q-1.2 1.6-2.8 3.3q-1.7 1.6-3.4 3.1q-1.7 1.5-3.4 2.7q-1.8 1.2-3.4 1.9q-1.3.5-2.4.7q-1 .2-2 .2q-4.7 0-4.7-3.9q0-1.5.7-3.2q1.6-4 4.6-7.1q2.9-3.1 6.3-4.6q1-.4 1.7-.4q3.1 0 3.1 2.5q0 1.2-.5 1.9q-.6.5-1.7 1.5l-.3-.1q.3-.7.3-1.5q0-.8-.7-1.6q-.6-.7-2-.7q-1.6 0-3.1 1q-1.5 1.1-2.6 2.8q-1.2 1.8-1.8 4q-.7 2.3-.7 4.7q0 1.7 1 2.6q.9.9 2.4.9q2.4 0 6.4-2.7q4-2.8 8.6-8.4q.4-.4.7-.2q.2.2-.3.6zM349.8 143.6q-1.5 1.9-3.6 3.5q-2 1.5-4.7 1.5q-1.4 0-2.8-.7q-1.4-.7-2.3-2.1q-.6 1.3-1.5 3.1q-.9 1.7-2.2 3.4q-1.3 1.8-2.9 3.2q-1.5 1.5-3.3 2.4q-1.5.7-2.6.7q-3 0-3-2.7q0-1.6.5-3.2q.6-1.6 1.4-3.1q.9-1.5 1.9-2.9q.9-1.4 1.8-2.2q1.8-2 4.1-3.3q2.3-1.4 4.9-1.6q.2-.7.5-1.6q.3-.9 1.2-1.1q.4-.1.8-.1q.5-.1.8-.3q.3-.2.5 0q.3.1.1.4q-.6 1-.9 2.4q-.3 1.4-.3 3.1q0 2.4.9 4q.9 1.5 3.1 1.5q2.2 0 4-1.5q1.8-1.4 3-3.1q.1-.4.5-.3q.4.2.1.6zM335.7 144.1q-.1-.7-.2-1.7q-.1-1.1-.1-2q0-.4-.3-.4q-1 0-2 .6q-1 .7-2 1.7q-1.1 1.1-2.1 2.4q-1 1.4-1.8 2.8q-1.1 1.9-2 4.1q-.9 2.2-.8 4.1q0 .6.2 1.1q.2.5.9.5q1.5 0 3.2-1.6q1.7-1.6 3.2-3.8q1.5-2.1 2.6-4.4q1.1-2.2 1.2-3.4zM363.3 135.3q0 .8-.4 1.5q-4.3 7.9-7.7 14q-3.4 6.1-6.4 11.2q-3.1 5.2-6.1 10q-3 4.8-6.3 10.2q-2.7 4.4-5.9 8.1q-3.2 3.8-7 6.6q-3.9 2.7-8.5 4.3q-4.5 1.6-9.9 1.6q-4 0-6.6-1.1q-2.6-1-4.1-2.8q-1.5-1.8-2.1-4.1q-.6-2.3-.6-4.8q0-1 .2-2.1q.2-1.2.4-1.9q.1-.3.3-.3q.3 0 .3.4q-.2.6-.3 1.4q-.2.8-.2 1.8q0 3 1.3 5.1q1.2 2.2 3.5 3.6q2.2 1.4 5.3 2.1q3.1.7 6.6.7q3.6 0 7.3-1.2q3.7-1.1 7.4-3.9q3.6-2.8 7.1-7.2q3.6-4.4 7-10.9q2.2-4 4.6-8.6q2.5-4.6 4.8-8.8q2.3-4.2 4.1-7.6q1.9-3.4 2.7-4.9q-1.7 2.3-3.3 4.3q-1.6 2.1-3 3.6q-1.4 1.6-2.7 2.4q-1.3.9-2.3.9q-.8 0-1.3-.5q-.5-.5-.5-1.6q0-1.3 1.1-3.6q1-2.3 2.8-4.9q1.7-2.5 3.9-4.8q2.2-2.3 4.5-3.4q2.1-1.1 4.1-1.1q.6 0 1 .1q.6-1.2 1.4-2.3q.7-1.2 1.4-2.6q.6-1.1 1.2-1.1q.3 0 .6.8q.3.7.3 1.4zM357.8 140.3q-.2-.1-.6-.1q-.4 0-.6 0q-1.2 0-2.3.2q-1 .3-1.8.9q-2.1 1.8-3.7 4q-1.5 2.2-2.5 4.4q-1 2.1-1.5 3.8q-.5 1.8-.5 2.5q0 1 .5 1q.5 0 2.1-1.5q1.5-1.4 3.4-3.8q1.9-2.4 4-5.3q2-3 3.5-6.1zM389.9 147q-1.5 2.2-3.5 4.3q-2 2.2-4.3 3.9q-2.2 1.7-4.6 2.8q-2.3 1.1-4.5 1.1q-1 0-1.9-.3q-.8-.3-.8-1.5q0-1.2.8-3q.9-1.8 2-3.9q1.1-2 2.4-4.1q1.2-2.2 2-3.9q.2-.5 0-.8q-.1-.3-.5 0q-1 .6-2.2 1.6q-1.3 1-2.6 2.2q-1.4 1.1-2.6 2.3q-1.2 1.2-2 2.1q-1.3 2.2-2.3 4q-1 1.7-2.4 3.9q-.4.6-.5.6q-.5 0-.8-1q-.3-.9-.3-1.2q0-.7 1.1-2.1q1.1-1.3 2.3-2.9q1.4-2.7 2.8-5.7q1.5-3 2.5-5.4q.3-.4.8-.4q.5 0 .9.4q.4.4.4.9q0 .4-1.2 2.4q-1.2 1.9-2.4 4.6q1.6-1.5 3.5-3.1q1.9-1.6 3.7-2.9q1.7-1.4 3-2.3q1.3-.9 1.8-.9q.4 0 .7.4q.3.4.3.7q0 .4-.5 1q-.9 1.4-2.2 3.5q-1.4 2.1-2.6 4.4q-1.3 2.2-2.1 4.3q-.9 2-.9 3.2q0 1 .5 1.4q.4.4 1.3.4q1.5 0 3.4-1.1q2-1.1 4.1-2.8q2-1.6 3.9-3.7q1.9-2 3.1-3.9q.1-.2.5-.1q.3.1-.1.6zM401.3 127.9q0 1-.9 2.1q-.9 1-2 1q-1 0-1-1q0-1.2.8-2.2q.8-1 2-1q1.1 0 1.1 1.1zM405.1 146.9q-2 2.6-4.7 5q-2.6 2.4-4.8 3.8q-1.7 1.1-3.5 1.7q-1.8.6-3.2.6q-.5 0-1.2-.1q-.7-.1-1.3-.4q-.5-.3-.9-.9q-.4-.6-.4-1.5q0-1.1.9-3q.8-1.9 2-4q1.1-2 2.3-3.9q1.1-1.8 1.8-2.8q.4-.7 1.5-1.1q1.1-.5 1.4-.5q.4 0 .4.3q0 .1-.1.5q-.1.3-.3.5q-1.1 1.7-2.3 3.7q-1.1 2.1-2 4q-1 1.9-1.5 3.5q-.6 1.6-.6 2.6q0 1 .6 1.4q.5.5 1.5.5q1.7 0 3.7-1.1q2-1.2 4-2.8q2-1.6 3.7-3.4q1.7-1.8 2.7-3.1q.4-.4.4-.2q.1.2-.1.7zM444.5 161.6q-.4 1.7-1.6 3.2q-1.2 1.6-3.1 2.8q-1.9 1.3-4.4 2q-2.4.8-5.2.8q-3.7 0-7.3-1q-3.7-1-7.4-2.9q-3.7-1.8-7.5-4.3q-3.8-2.5-8-5.4q-.3-.2-.5-.2q-.2 0-.6.2q-.7.4-1.2.8q-.6.3-1.3.8q-.7.4-1-.1q-.2-.5.4-.8q4-1.9 7.4-4q3.5-2.2 6.1-4.1q2.6-1.9 4.1-3.3q1.6-1.3 1.6-1.4q0-.4-.4-.4q-.3.1-1 .3q-.7.2-1.4.4q-.7.2-1.4.3q-.8.1-1.2.1q-1.1 0-2.3-.8q-1.3-.8-1.3-2.8q.2-.7 1.1-1.6q1-1 2.3-1.8q.4 0 .4.3q-.8.8-.8 2.4q0 1.4 1 2.2q1 .8 2.5.8q2 0 4-1.2q2-1.3 4-3.2q.4-.4.8 0q.5.4 0 .9q-1.4 1-3 2.3q-1.6 1.2-2.6 2.1q-2 1.8-5.3 4.2q-3.3 2.5-7.4 5.2q-.4.2-.4.4q-.1.2.4.6q4.2 2.8 8.4 5.3q4.2 2.6 7.9 4.5q3.8 2 7.1 3.1q3.2 1.2 5.5 1.2q3.8 0 6.9-2.1q3-2.1 5.2-6q.3-.3.5.2zM439.9 147.9q-1.5 1.8-3.5 3.7q-2 1.9-4.3 3.5q-2.3 1.5-4.9 2.5q-2.5 1-4.9 1q-4 0-4-3.6q0-2.4 1.2-5.1q1.2-2.8 3.2-5.1q2-2.4 4.3-3.9q2.3-1.6 4.5-1.6q1.1 0 1.6.4q.5.5.5 1.1q0 1-.7 2.2q-.6 1.2-1.9 2.3q-1.2 1.1-3.2 1.8q-2 .7-4.7.7q-.4.8-.9 2.4q-.5 1.7-.5 3.4q0 3.5 3.1 3.5q2 0 4.1-1q2-.9 4-2.3q2-1.4 3.6-3.1q1.7-1.6 2.8-3.1q.1-.1.4-.1q.2.1.2.4zM430.9 141.3q0-1.1-1.1-1.1q-.8 0-1.7.6q-.9.6-1.7 1.6q-.9 1.1-1.7 2.3q-.7 1.1-1.2 2.3q.1 0 .6.1q.4 0 .6 0q2.5 0 4.4-1.7q1.8-1.8 1.8-4.1zM496.5 152.7q-3.2 3.4-6.7 5.5q-3.5 2.1-7.7 2.1q-1.7 0-2.3-.9q-.7-.9-.7-2.3q0-1.5.7-3.6q.7-2 1.9-4.5q-1 1.4-2.2 2.8q-1.1 1.4-2.3 2.4q-1.1 1.1-2.2 1.7q-1.1.7-2.2.7q-1.8 0-1.8-1.9q0-.7.7-2.3q.7-1.6 2.8-4.8q.9-1.4 1.8-3q1-1.6 1-2.8q0-.7-.6-1.3q-.5-.5-2-.5q-1.9 0-4.3.7q-2.4.8-4.2 1.5q.1 1.4-.8 4.1q-1 2.7-2.6 5.4q-1.6 2.7-3.7 4.8q-2.1 2-4.4 2q-1.1 0-1.7-.7q-.7-.6-.7-1.8q0-2.3 1-4.7q1-2.4 2.5-4.4q1.6-2.1 3.4-3.6q1.8-1.6 3.3-2.4q-.2-.3-.2-.9q0-.2.1-.4q.1-.3.3-.3q.5.4.9.5q.4 0 1.1 0q1.4 0 3.8-.2q2.4-.2 4.6-.2q3.2 0 4.4 1q1.2.9 1.2 3q0 1-.6 2.6q-.7 1.5-1.8 3.4q-1.2 2-1.7 3.2q-.6 1.2-.6 1.9q0 .7.6.7q.5 0 1.7-.9q1.1-1 2.4-2.3q1.2-1.2 2.3-2.6q1.1-1.4 1.6-2.4q.9-1.5 1.8-3.1q.9-1.6 2-3.2q.5-.5 1.3-.7q.8-.3 1.8-.4q.8 0 .8.3q-.5.2-.8.5q-.4.3-.9 1q-1.5 2.2-2.7 4.5q-1.1 2.3-2 4.4q-.9 2-1.4 3.6q-.5 1.6-.5 2.5q0 1.2.5 2q.6.9 1.8.9q2.2 0 5.2-1.5q3-1.5 6.6-5.5q.4-.2.4.4zM464.4 143.7q0-.2 0-.6q0-.3-.1-.6q-.4-.1-.8-.5q-.4-.3-.7-.6q-1.2.4-2.5 2q-1.4 1.6-2.6 3.7q-1.2 2.1-1.9 4.4q-.8 2.3-.8 3.9q0 .9.4 1.3q.4.5.9.5q.9 0 2.3-1.2q1.4-1.2 2.7-3.1q1.3-2 2.2-4.3q.9-2.4.9-4.9zM513.7 140.7q-.5.6-1 1.4q-.6.9-.7 1.3q-.1.2-.4.2q-.1 0-.2-.2q-.2-.3-.5-.6q-.3-.3-.8-.5q-.5-.3-1.5-.3q-1.1 0-2.4.8q-1.4.8-2.4 1.7q-1.6 1.3-2.9 3q-1.2 1.6-2.3 3.3q-1.1 1.8-2.1 3.6q-1 1.8-2.2 3.7q-.1.2-.5.2q-.2 0-.8-.5q-.5-.5-.5-.7q0-.5.6-1.6q1.3-2.3 2.7-4.8q1.4-2.4 2.7-4.5q1.2-2.1 2.1-3.7q1-1.6 1.3-2.3q.4-.8.6-.8q.2 0 .9.4q.6.4.6 1.2q0 .3-.3.8q-.3.6-.6 1.3q-.4.6-.8 1.2q-.3.6-.5.9q-.2.4 0 .4q.1 0 .4-.3q.8-.8 2.1-1.8q1.2-1.1 2.5-1.9q1.4-.9 2.7-1.5q1.3-.6 2.4-.6q.7 0 1.3.4q.5.3.5.8zM544.3 127.9q0 1-.9 2.1q-.8 1-2 1q-1 0-1-1q0-1.2.8-2.2q.8-1 2-1q1.1 0 1.1 1.1zM548.2 146.9q-2.1 2.6-4.7 5q-2.6 2.4-4.9 3.8q-1.7 1.1-3.4 1.7q-1.8.6-3.3.6q-.5 0-1.2-.1q-.6-.1-1.2-.4q-.5-.3-.9-.9q-.4-.6-.4-1.5q0-1.1.8-3q.9-1.9 2-4q1.2-2 2.3-3.9q1.2-1.8 1.9-2.8q.4-.7 1.4-1.1q1.1-.5 1.4-.5q.5 0 .5.3q0 .1-.2.5q-.1.3-.3.5q-1.1 1.7-2.2 3.7q-1.2 2.1-2.1 4q-.9 1.9-1.5 3.5q-.5 1.6-.5 2.6q0 1 .5 1.4q.6.5 1.5.5q1.7 0 3.7-1.1q2.1-1.2 4.1-2.8q2-1.6 3.7-3.4q1.7-1.8 2.6-3.1q.4-.4.5-.2q0 .2-.1.7zM564.3 135.3q0 .8-.4 1.5q-4.3 7.9-7.7 14q-3.4 6.1-6.4 11.2q-3.1 5.2-6.1 10q-2.9 4.8-6.3 10.2q-2.7 4.4-5.9 8.1q-3.1 3.8-7 6.6q-3.9 2.7-8.4 4.3q-4.6 1.6-10 1.6q-4 0-6.6-1.1q-2.6-1-4.1-2.8q-1.5-1.8-2.1-4.1q-.6-2.3-.6-4.8q0-1 .2-2.1q.2-1.2.4-1.9q.1-.3.4-.3q.2 0 .2.4q-.1.6-.3 1.4q-.2.8-.2 1.8q0 3 1.3 5.1q1.3 2.2 3.5 3.6q2.3 1.4 5.3 2.1q3.1.7 6.6.7q3.6 0 7.3-1.2q3.7-1.1 7.4-3.9q3.6-2.8 7.2-7.2q3.5-4.4 6.9-10.9q2.2-4 4.7-8.6q2.4-4.6 4.7-8.8q2.3-4.2 4.2-7.6q1.8-3.4 2.6-4.9q-1.7 2.3-3.3 4.3q-1.6 2.1-3 3.6q-1.4 1.6-2.7 2.4q-1.3.9-2.3.9q-.7 0-1.2-.5q-.6-.5-.6-1.6q0-1.3 1.1-3.6q1.1-2.3 2.8-4.9q1.8-2.5 4-4.8q2.2-2.3 4.5-3.4q2-1.1 4-1.1q.6 0 1 .1q.7-1.2 1.4-2.3q.7-1.2 1.5-2.6q.6-1.1 1.1-1.1q.3 0 .6.8q.3.7.3 1.4zM558.9 140.3q-.3-.1-.7-.1q-.3 0-.6 0q-1.2 0-2.3.2q-1 .3-1.8.9q-2.1 1.8-3.6 4q-1.6 2.2-2.6 4.4q-1 2.1-1.5 3.8q-.4 1.8-.4 2.5q0 1 .5 1q.5 0 2-1.5q1.5-1.4 3.4-3.8q2-2.4 4-5.3q2-3 3.6-6.1zM590.9 147q-1.5 2.2-3.5 4.3q-2 2.2-4.3 3.9q-2.2 1.7-4.6 2.8q-2.3 1.1-4.5 1.1q-1 0-1.9-.3q-.8-.3-.8-1.5q0-1.2.8-3q.9-1.8 2-3.9q1.2-2 2.4-4.1q1.2-2.2 2-3.9q.2-.5 0-.8q-.1-.3-.5 0q-.9.6-2.2 1.6q-1.3 1-2.6 2.2q-1.3 1.1-2.6 2.3q-1.2 1.2-2 2.1q-1.3 2.2-2.3 4q-1 1.7-2.4 3.9q-.4.6-.5.6q-.4 0-.7-1q-.3-.9-.3-1.2q0-.7 1-2.1q1.1-1.3 2.4-2.9q1.3-2.7 2.8-5.7q1.4-3 2.4-5.4q.3-.4.8-.4q.5 0 .9.4q.5.4.5.9q0 .4-1.3 2.4q-1.2 1.9-2.4 4.6q1.6-1.5 3.5-3.1q1.9-1.6 3.7-2.9q1.7-1.4 3-2.3q1.4-.9 1.9-.9q.3 0 .6.4q.3.4.3.7q0 .4-.4 1q-1 1.4-2.3 3.5q-1.4 2.1-2.6 4.4q-1.2 2.2-2.1 4.3q-.8 2-.8 3.2q0 1 .4 1.4q.4.4 1.3.4q1.5 0 3.4-1.1q2-1.1 4.1-2.8q2.1-1.6 3.9-3.7q1.9-2 3.1-3.9q.2-.2.5-.1q.3.1-.1.6zM614.6 143.6q-1.4 1.9-3.5 3.5q-2.1 1.5-4.7 1.5q-1.5 0-2.9-.7q-1.4-.7-2.2-2.1q-.6 1.3-1.5 3.1q-1 1.7-2.3 3.4q-1.2 1.8-2.8 3.2q-1.6 1.5-3.4 2.4q-1.5.7-2.5.7q-3.1 0-3.1-2.7q0-1.6.6-3.2q.5-1.6 1.4-3.1q.8-1.5 1.8-2.9q1-1.4 1.8-2.2q1.8-2 4.1-3.3q2.3-1.4 5-1.6q.1-.7.5-1.6q.3-.9 1.2-1.1q.4-.1.8-.1q.4-.1.8-.3q.2-.2.5 0q.2.1.1.4q-.6 1-.9 2.4q-.3 1.4-.3 3.1q0 2.4.9 4q.9 1.5 3.1 1.5q2.2 0 4-1.5q1.7-1.4 2.9-3.1q.2-.4.6-.3q.4.2 0 .6zM600.6 144.1q-.2-.7-.2-1.7q-.1-1.1-.1-2q0-.4-.4-.4q-.9 0-1.9.6q-1 .7-2.1 1.7q-1 1.1-2 2.4q-1 1.4-1.9 2.8q-1.1 1.9-2 4.1q-.9 2.2-.8 4.1q0 .6.2 1.1q.2.5 1 .5q1.5 0 3.2-1.6q1.7-1.6 3.2-3.8q1.5-2.1 2.6-4.4q1-2.2 1.2-3.4zM626.5 140.7q-.5.6-1 1.4q-.6.9-.8 1.3q0 .2-.3.2q-.1 0-.2-.2q-.2-.3-.5-.6q-.3-.3-.8-.5q-.5-.3-1.5-.3q-1.1 0-2.4.8q-1.4.8-2.4 1.7q-1.6 1.3-2.9 3q-1.2 1.6-2.3 3.3q-1.1 1.8-2.1 3.6q-1 1.8-2.2 3.7q-.1.2-.5.2q-.2 0-.8-.5q-.5-.5-.5-.7q0-.5.6-1.6q1.3-2.3 2.7-4.8q1.4-2.4 2.7-4.5q1.2-2.1 2.1-3.7q1-1.6 1.3-2.3q.4-.8.6-.8q.2 0 .9.4q.6.4.6 1.2q0 .3-.3.8q-.3.6-.6 1.3q-.4.6-.8 1.2q-.3.6-.5.9q-.2.4-.1.4q.2 0 .5-.3q.8-.8 2.1-1.8q1.2-1.1 2.5-1.9q1.4-.9 2.7-1.5q1.3-.6 2.4-.6q.7 0 1.3.4q.5.3.5.8zM652.6 146.4q-1.9 2.3-4.3 4.8q-2.3 2.4-4.7 4.3q-2.4 2-4.7 3.2q-2.3 1.2-4.3 1.2q-1.7 0-2.4-.9q-.7-.8-.7-2.1q0-1.2.8-3.2q.7-2 2.1-4.3q-1.1 1.5-2.5 3.1q-1.5 1.6-3 2.9q-1.5 1.3-3.1 2.2q-1.5.9-2.7.9q-1.8 0-1.8-1.8q0-1.9 1.6-4.9q1.5-3 4.1-5.7q2.6-2.8 5.9-4.8q3.3-2 6.9-2q.4-.9.8-1.2q.3-.3.6-.5l2.4-.7l.2.1q-.4.4-.8 1.1q-.4.6-.8 1.3q.4 0 1.2.1q.9.1 1.3.1q.4.2.4.5q0 .2-.2.2q-.5-.1-1.5-.2q-1.1-.1-1.6-.1q-3.9 6.9-5.7 10.9q-1.8 4-1.8 6q0 .8.3 1.3q.4.5 1.6.5q1.4 0 3.2-1q1.9-1 4-2.7q2.2-1.8 4.4-4.1q2.3-2.3 4.3-4.8q.2-.3.4-.1q.1.1.1.4zM639.4 139.9q-2.9 0-5.6 2q-2.6 2.1-4.6 4.8q-2.1 2.8-3.3 5.5q-1.2 2.7-1.2 4q0 .7.5.7q.5 0 1.5-.7q1.1-.7 2.5-1.8q1.3-1.2 2.7-2.7q1.4-1.5 2.6-3.3q1.4-2 2.7-4.3q1.2-2.3 2.2-4.1zM674.3 147q-1.5 2.2-3.5 4.3q-2 2.2-4.3 3.9q-2.2 1.7-4.6 2.8q-2.3 1.1-4.5 1.1q-1 0-1.9-.3q-.8-.3-.8-1.5q0-1.2.8-3q.9-1.8 2-3.9q1.2-2 2.4-4.1q1.2-2.2 2-3.9q.2-.5 0-.8q-.1-.3-.5 0q-1 .6-2.2 1.6q-1.3 1-2.6 2.2q-1.3 1.1-2.6 2.3q-1.2 1.2-2 2.1q-1.3 2.2-2.3 4q-1 1.7-2.4 3.9q-.4.6-.5.6q-.5 0-.8-1q-.3-.9-.3-1.2q0-.7 1.1-2.1q1.1-1.3 2.3-2.9q1.4-2.7 2.8-5.7q1.5-3 2.5-5.4q.3-.4.8-.4q.5 0 .9.4q.4.4.4.9q0 .4-1.2 2.4q-1.2 1.9-2.4 4.6q1.6-1.5 3.5-3.1q1.9-1.6 3.7-2.9q1.7-1.4 3-2.3q1.3-.9 1.9-.9q.3 0 .6.4q.3.4.3.7q0 .4-.4 1q-1 1.4-2.3 3.5q-1.4 2.1-2.6 4.4q-1.3 2.2-2.1 4.3q-.9 2-.9 3.2q0 1 .5 1.4q.4.4 1.3.4q1.5 0 3.4-1.1q2-1.1 4.1-2.8q2-1.6 3.9-3.7q1.9-2 3.1-3.9q.1-.2.5-.1q.3.1-.1.6zM692 146.6q-1.3 1.6-2.9 3.3q-1.6 1.6-3.3 3.1q-1.7 1.5-3.5 2.7q-1.8 1.2-3.4 1.9q-1.3.5-2.3.7q-1.1.2-2 .2q-4.7 0-4.7-3.9q0-1.5.7-3.2q1.6-4 4.5-7.1q2.9-3.1 6.3-4.6q1.1-.4 1.7-.4q3.2 0 3.2 2.5q0 1.2-.6 1.9q-.5.5-1.7 1.5l-.3-.1q.3-.7.3-1.5q0-.8-.6-1.6q-.7-.7-2-.7q-1.7 0-3.1 1q-1.5 1.1-2.7 2.8q-1.1 1.8-1.8 4q-.7 2.3-.7 4.7q0 1.7 1 2.6q1 .9 2.4.9q2.4 0 6.4-2.7q4.1-2.8 8.7-8.4q.4-.4.6-.2q.2.2-.2.6zM709.4 147.9q-1.4 1.8-3.4 3.7q-2 1.9-4.4 3.5q-2.3 1.5-4.8 2.5q-2.5 1-5 1q-4 0-4-3.6q0-2.4 1.2-5.1q1.3-2.8 3.2-5.1q2-2.4 4.3-3.9q2.4-1.6 4.5-1.6q1.2 0 1.6.4q.5.5.5 1.1q0 1-.6 2.2q-.7 1.2-1.9 2.3q-1.3 1.1-3.3 1.8q-1.9.7-4.6.7q-.5.8-1 2.4q-.5 1.7-.5 3.4q0 3.5 3.2 3.5q1.9 0 4-1q2.1-.9 4-2.3q2-1.4 3.6-3.1q1.7-1.6 2.8-3.1q.2-.1.4-.1q.2.1.2.4zM700.5 141.3q0-1.1-1.1-1.1q-.9 0-1.8.6q-.9.6-1.7 1.6q-.9 1.1-1.6 2.3q-.8 1.1-1.3 2.3q.2 0 .6.1q.4 0 .7 0q2.4 0 4.3-1.7q1.9-1.8 1.9-4.1z" fill="#e6edf3"/></g><g mask="url(#m2)"><path d="M165.4 232.4q-2 2.3-4.3 4.8q-2.3 2.4-4.7 4.3q-2.4 2-4.7 3.2q-2.4 1.2-4.3 1.2q-1.7 0-2.4-.9q-.7-.8-.7-2.1q0-1.2.7-3.2q.8-2 2.2-4.3q-1.1 1.5-2.5 3.1q-1.5 1.6-3 2.9q-1.5 1.3-3.1 2.2q-1.5.9-2.7.9q-1.8 0-1.8-1.8q0-1.9 1.6-4.9q1.5-3 4.1-5.7q2.6-2.8 5.9-4.8q3.3-2 6.9-2q.4-.9.7-1.2q.4-.3.7-.5l2.4-.7l.2.1q-.5.4-.8 1.1q-.4.6-.8 1.3q.4 0 1.2.1q.9.1 1.3.1q.4.2.4.5q0 .2-.2.2q-.5-.1-1.6-.2q-1-.1-1.5-.1q-3.9 6.9-5.7 10.9q-1.9 4-1.9 6q0 .8.4 1.3q.4.5 1.6.5q1.4 0 3.2-1q1.9-1 4-2.7q2.2-1.8 4.4-4.1q2.3-2.3 4.3-4.8q.2-.3.3-.1q.2.1.2.4zM152.1 225.9q-2.8 0-5.5 2q-2.6 2.1-4.7 4.8q-2 2.8-3.2 5.5q-1.3 2.7-1.3 4q0 .7.6.7q.5 0 1.5-.7q1.1-.7 2.4-1.8q1.4-1.2 2.8-2.7q1.4-1.5 2.6-3.3q1.4-2 2.6-4.3q1.3-2.3 2.3-4.1zM187.1 233q-1.5 2.2-3.5 4.3q-2 2.2-4.3 3.9q-2.3 1.7-4.6 2.8q-2.3 1.1-4.5 1.1q-1.1 0-1.9-.3q-.9-.3-.9-1.5q0-1.2.9-3q.8-1.8 2-3.9q1.1-2 2.4-4.1q1.2-2.2 2-3.9q.1-.5 0-.8q-.1-.3-.5 0q-1 .6-2.2 1.6q-1.3 1-2.6 2.2q-1.4 1.1-2.6 2.3q-1.2 1.2-2 2.1q-1.4 2.2-2.3 4q-1 1.7-2.5 3.9q-.3.6-.5.6q-.4 0-.7-1q-.3-.9-.3-1.2q0-.7 1.1-2.1q1-1.3 2.3-2.9q1.4-2.7 2.8-5.7q1.5-3 2.5-5.4q.2-.4.8-.4q.5 0 .9.4q.4.4.4.9q0 .4-1.2 2.4q-1.3 1.9-2.4 4.6q1.6-1.5 3.5-3.1q1.9-1.6 3.6-3q1.8-1.3 3.1-2.2q1.3-.9 1.8-.9q.4 0 .7.4q.3.4.3.7q0 .4-.5 1q-.9 1.4-2.3 3.5q-1.3 2.1-2.5 4.4q-1.3 2.2-2.1 4.3q-.9 2-.9 3.2q0 1 .4 1.4q.5.4 1.4.4q1.4 0 3.4-1.1q2-1.1 4-2.8q2.1-1.6 4-3.7q1.9-2 3.1-3.9q.1-.2.5-.1q.3.1-.1.6zM236.4 187.5q0 .5-.5 1q-.5.5-.7 1.4q-.2.6-.6.6q-.3 0-.5-.1q-.3-.1-.7-.3q-.3-.2-.9-.3q-.5-.1-1.6-.1q-1.4 0-2.9.4q-1.4.3-2.6 1.1q-2.4 1.5-5.1 4.4q-2.8 2.8-5.1 6.1q-5.7 8.1-10 15.2q-4.3 7.1-7.2 12.7q-2.8 5.6-4.3 9.6q-1.4 4-1.4 5.8q0 1.5.6 2.4q.6.9 2.1.9q2.3 0 4.4-1.4q2-1.5 3.9-3.6q1.9-2.2 3.4-4.8q1.5-2.7 2.7-5q.1-.3.5-.2q.4.1 0 .7q-1.6 3-3.3 5.8q-1.8 2.8-3.7 4.8q-1.9 2.1-4 3.3q-2 1.2-4.1 1.2q-2.3 0-3.4-1.2q-1.1-1.3-1.1-3.2q0-2.1.8-4.4q.8-2.3 2.5-5.7q-2.4 2.9-4.1 4.8q-1.8 2-3.2 3.1q-1.3 1.1-2.3 1.5q-1 .5-1.8.5q-1.2 0-1.6-.6q-.4-.7-.4-1.7q0-.8.4-2q.4-1.2 1.2-2.4q3.2-5.1 7-8.3q3.9-3.3 9.6-4.3q4.1-7.1 7.8-12.8q3.7-5.7 8.2-11.2q3.6-4.5 7.2-8q3.6-3.5 7.5-5.3q2.9-1.4 5-1.4q1 0 1.6.3q.7.2.7.7zM197.7 226.5q-3.2.1-5 1.2q-1.7 1.2-3.1 2.9q-3.2 4-4.6 6.8q-1.3 2.9-1.3 4.2q0 .4.3.6q.4.2.5.2q.6 0 2.2-1.3q1.6-1.3 3.5-3.4q1.9-2.2 3.9-5.1q2.1-2.9 3.6-6.1zM262.9 188.6q0 1.2-.9 3.5q-1 2.3-2.7 5.3q-1.8 3-4.3 6.4q-2.5 3.5-5.7 6.9q-3.1 3.4-7 6.5q-3.8 3.1-8.1 5.5q-.8 1.3-2.2 3.6q-1.3 2.3-2.6 4.9q-1.4 2.5-2.3 5q-1 2.4-1 4.1q0 2.8 2.5 2.8q2.1 0 4.4-1.2q2.3-1.2 4.4-2.9q2-1.7 3.9-3.6q1.8-1.9 3.1-3.5q.6-.6.6-.3q.1.3-.2.7q-1.5 1.8-3.6 4q-2.1 2.1-4.4 3.9q-2.4 1.8-4.9 3q-2.6 1.1-5.1 1.1q-2.2 0-3.2-1q-1-1.1-1-2.6q0-1.5 1.3-4.4q1.3-2.8 3.1-6q1.8-3.1 3.6-5.9q1.8-2.8 2.6-4.3q1.5-2.5 3.1-5.1q1.5-2.7 3.1-5.3q1.5-2.5 2.9-4.8q1.4-2.4 2.6-4.2q1.4-2.2 3-4.1q1.5-2 3.9-3.9q3.2-2.8 5.9-4.2q2.7-1.5 3.7-1.5q.6 0 1.1.4q.4.4.4 1.2zM259.1 190.8q0-1.4-1.1-1.4q-.5 0-1 .3q-.5.2-1.3 1q-.8.9-1.9 2.3q-1.2 1.4-3 3.7q-.6 1-1.9 2.8q-1.2 1.7-3.1 4.7q-1.9 2.9-4.6 7.2q-2.7 4.3-6.4 10.2q5.2-2.9 9.6-7.1q4.5-4.1 7.7-8.4q3.2-4.3 5.1-8.4q1.9-4.1 1.9-6.9zM261.3 233.9q-1.5 1.8-3.5 3.7q-2 1.9-4.3 3.5q-2.3 1.5-4.8 2.5q-2.5 1-5 1q-4 0-4-3.6q0-2.4 1.2-5.1q1.3-2.8 3.2-5.1q2-2.4 4.3-3.9q2.3-1.6 4.5-1.6q1.2 0 1.6.4q.5.5.5 1.1q0 1-.6 2.2q-.7 1.2-2 2.3q-1.2 1.1-3.2 1.8q-1.9.7-4.7.7q-.4.8-.9 2.4q-.5 1.7-.5 3.4q0 3.5 3.1 3.5q2 0 4.1-1q2.1-.9 4-2.3q2-1.4 3.6-3.1q1.7-1.6 2.8-3.1q.2-.1.4-.1q.2.1.2.4zM252.4 227.3q0-1.1-1.1-1.1q-.9 0-1.8.6q-.9.6-1.7 1.6q-.9 1.1-1.6 2.3q-.8 1.1-1.3 2.3q.1 0 .6.1q.4 0 .7 0q2.4 0 4.3-1.7q1.9-1.8 1.9-4.1zM286.5 232.4q-1.9 2.3-4.3 4.8q-2.3 2.4-4.7 4.3q-2.4 2-4.7 3.2q-2.3 1.2-4.3 1.2q-1.7 0-2.4-.9q-.7-.8-.7-2.1q0-1.2.8-3.2q.7-2 2.1-4.3q-1.1 1.5-2.5 3.1q-1.5 1.6-3 2.9q-1.5 1.3-3 2.2q-1.6.9-2.8.9q-1.8 0-1.8-1.8q0-1.9 1.6-4.9q1.5-3 4.1-5.7q2.6-2.8 5.9-4.8q3.3-2 6.9-2q.4-.9.8-1.2q.3-.3.6-.5l2.4-.7l.2.1q-.4.4-.8 1.1q-.4.6-.8 1.3q.4 0 1.3.1q.8.1 1.2.1q.4.2.4.5q0 .2-.2.2q-.5-.1-1.5-.2q-1.1-.1-1.6-.1q-3.9 6.9-5.7 10.9q-1.8 4-1.8 6q0 .8.4 1.3q.3.5 1.5.5q1.4 0 3.3-1q1.8-1 4-2.7q2.1-1.8 4.3-4.1q2.3-2.3 4.3-4.8q.2-.3.4-.1q.1.1.1.4zM273.3 225.9q-2.9 0-5.6 2q-2.6 2.1-4.6 4.8q-2.1 2.8-3.3 5.5q-1.2 2.7-1.2 4q0 .7.5.7q.5 0 1.5-.7q1.1-.7 2.5-1.8q1.3-1.2 2.7-2.7q1.4-1.5 2.6-3.3q1.4-2 2.7-4.3q1.2-2.3 2.3-4.1zM298.9 227q-.1 1.6-1.3 3.5q-1.2 1.9-2.9 3.9q-1.7 1.9-3.8 3.7q-2.1 1.8-4.1 3.2q-2 1.4-3.7 2.3q-1.7.9-2.6.9l-1.4-1.3q0-.4.4-.3q1.9-.2 3.2-1.5q1.3-1.3 2-5.2q.1-1 .3-2.1q.2-1.1.3-2.2q.2-1.1.4-1.9q.2-.9.4-1.2q.3-1 .2-1.2q-.1-.3-.8-.3l-2.5.5q-.7-.4.1-.6q1.7-.3 4-.6q2.3-.4 3.7-.8q.2.2.1.4q-.4.2-.8.5q-.4.4-.7 1q-.4.9-.7 2.3q-.3 1.3-.6 2.6q-.2 1.3-.4 2.3q-.2 1.1-.4 1.5q-.5 1.5-1.7 2.8q-1.2 1.4-2.4 2.3q-.3.6.1.4q2.5-.9 4.7-2.3q2.3-1.4 4.1-3.3q1.7-1.9 2.9-4.3q1.1-2.4 1.4-5.2q.2-3.3-1-4.3q-.2-.1-.1-.2q.1-.1.6 0q1.5.2 2.4 1.5q.8 1.2.6 3.2zM321 233.9q-1.5 1.8-3.5 3.7q-2 1.9-4.3 3.5q-2.4 1.5-4.9 2.5q-2.5 1-4.9 1q-4 0-4-3.6q0-2.4 1.2-5.1q1.2-2.8 3.2-5.1q1.9-2.4 4.3-3.9q2.3-1.6 4.4-1.6q1.2 0 1.7.4q.5.5.5 1.1q0 1-.7 2.2q-.6 1.2-1.9 2.3q-1.3 1.1-3.2 1.8q-2 .7-4.7.7q-.4.8-.9 2.4q-.5 1.7-.5 3.4q0 3.5 3.1 3.5q2 0 4-1q2.1-.9 4.1-2.3q1.9-1.4 3.6-3.1q1.7-1.6 2.8-3.1q.1-.1.3-.1q.3.1.3.4zM312 227.3q0-1.1-1.1-1.1q-.8 0-1.7.6q-.9.6-1.8 1.6q-.8 1.1-1.6 2.3q-.7 1.1-1.2 2.3q.1 0 .5.1q.5 0 .7 0q2.5 0 4.4-1.7q1.8-1.8 1.8-4.1zM352.8 226.7q-.5.6-1 1.4q-.6.9-.8 1.3q0 .2-.3.2q-.1 0-.2-.2q-.2-.3-.5-.6q-.3-.3-.8-.5q-.5-.3-1.5-.3q-1.1 0-2.4.8q-1.4.8-2.4 1.7q-1.6 1.3-2.9 3q-1.2 1.6-2.3 3.3q-1.1 1.8-2.1 3.6q-1 1.8-2.2 3.7q-.1.2-.5.2q-.2 0-.8-.5q-.5-.5-.5-.7q0-.5.6-1.6q1.3-2.3 2.7-4.8q1.4-2.4 2.7-4.5q1.2-2.1 2.1-3.7q1-1.6 1.3-2.3q.4-.8.6-.8q.2 0 .9.4q.6.4.6 1.2q0 .3-.3.8q-.3.6-.6 1.3q-.4.6-.8 1.2q-.3.6-.5.9q-.2.4-.1.4q.2 0 .5-.3q.8-.8 2.1-1.8q1.2-1.1 2.5-1.9q1.4-.9 2.7-1.5q1.3-.6 2.4-.6q.7 0 1.3.4q.5.3.5.8zM377.9 229.6q-1.4 1.9-3.5 3.5q-2.1 1.5-4.7 1.5q-1.5 0-2.9-.7q-1.4-.7-2.2-2.1q-.6 1.3-1.6 3.1q-.9 1.7-2.2 3.4q-1.3 1.8-2.8 3.2q-1.6 1.5-3.4 2.4q-1.5.7-2.5.7q-3.1 0-3.1-2.7q0-1.6.6-3.2q.5-1.6 1.4-3.1q.8-1.5 1.8-2.9q1-1.4 1.8-2.2q1.8-2 4.1-3.3q2.3-1.4 4.9-1.6q.2-.7.5-1.6q.4-.9 1.2-1.1q.5-.1.9-.1q.4-.1.7-.3q.3-.2.5 0q.3.1.1.4q-.6 1-.9 2.4q-.3 1.4-.3 3.1q0 2.4.9 4q.9 1.5 3.1 1.5q2.2 0 4-1.5q1.8-1.4 3-3.1q.2-.4.6-.3q.3.2 0 .6zM363.9 230.1q-.2-.7-.3-1.7q-.1-1.1-.1-2q0-.4-.3-.4q-.9 0-2 .6q-1 .7-2 1.7q-1 1.1-2 2.4q-1.1 1.4-1.9 2.8q-1.1 1.9-2 4.1q-.9 2.2-.8 4.1q0 .6.2 1.1q.2.5 1 .5q1.4 0 3.1-1.6q1.7-1.6 3.3-3.8q1.5-2.1 2.5-4.4q1.1-2.2 1.3-3.4zM399.2 229.6q-1.5 1.9-3.6 3.5q-2.1 1.5-4.7 1.5q-1.4 0-2.8-.7q-1.4-.7-2.3-2.1q-.6 1.3-1.5 3.1q-1 1.7-2.2 3.4q-1.3 1.8-2.9 3.2q-1.6 1.5-3.3 2.4q-1.6.7-2.6.7q-3 0-3-2.7q0-1.6.5-3.2q.6-1.6 1.4-3.1q.9-1.5 1.8-2.9q1-1.4 1.9-2.2q1.7-2 4-3.3q2.3-1.4 5-1.6q.1-.7.5-1.6q.3-.9 1.2-1.1q.4-.1.8-.1q.4-.1.8-.3q.2-.2.5 0q.3.1.1.4q-.6 1-.9 2.4q-.3 1.4-.3 3.1q0 2.4.9 4q.9 1.5 3.1 1.5q2.2 0 4-1.5q1.8-1.4 3-3.1q.1-.4.5-.3q.4.2.1.6zM385.1 230.1q-.1-.7-.2-1.7q-.1-1.1-.1-2q0-.4-.4-.4q-.9 0-1.9.6q-1 .7-2 1.7q-1.1 1.1-2.1 2.4q-1 1.4-1.9 2.8q-1.1 1.9-2 4.1q-.8 2.2-.8 4.1q0 .6.3 1.1q.2.5.9.5q1.5 0 3.2-1.6q1.7-1.6 3.2-3.8q1.5-2.1 2.6-4.4q1.1-2.2 1.2-3.4zM424.3 236.7q-1.2 1.3-2.8 3.1q-1.7 1.6-3.6 3.2q-1.8 1.5-3.8 2.5q-2 1.1-3.9 1.1q-1.7 0-2.4-.7q-.7-.7-.7-2.2q0-.9 1-3q1-2.1 2.2-4.4q1.2-2.3 2.2-4.4q.9-2.1.9-2.9q0-.6-.4-.6q-1.1.6-2.5 1.8q-1.4 1.1-2.8 2.5q-1.3 1.4-2.5 2.6q-1.1 1.3-1.7 2.2q-.6.8-1.2 2q-.6 1.2-1.1 2.3q-.6 1.1-1.2 1.9q-.5.7-.9.7q-.5 0-.8-.4q-.3-.4-.3-.8q0-.3.2-.9q.3-.7 1-1.6q1.1-1.5 2-3.2q.8-1.7 1.5-3.2q.6-1.4 1-2.5q.3-1 .3-1.1q0-.7-.3-.7q-.5 0-1.8 1q-1.2 1.1-2.7 2.6q-1.4 1.6-2.8 3.3q-1.4 1.7-2.3 3q-1.2 1.8-2.1 3.2q-.8 1.3-1.3 1.3q-.6 0-.8-.6q-.1-.6-.1-1.2q0-.6.3-1.1q2.3-3.6 4.6-7.4q2.2-3.9 4.4-7.6q.4-.8.9-.8q.4 0 .8.5q.3.5.3.9q-.6 1.7-2 4.1q-1.5 2.5-2.6 4.6q3.4-4 5.7-6q2.3-2 3.8-2q.9 0 .9 1.3q0 .9-.8 2.6q-.7 1.8-1.3 2.9q-.2.3-.1.3q.1-.1.3-.3q1-1.1 2.4-2.5q1.3-1.3 2.8-2.5q1.4-1.2 2.9-2.2q1.5-1 2.8-1.6q1.3 0 1.3 1.2q0 .3-.1.5q-.1.3-.3.6q-.4.9-1.5 3.1q-1.2 2.1-2.4 4.5q-1.2 2.4-2.1 4.7q-.8 2.2-.8 3.4q0 1.7 1.6 1.7q1.5 0 3.2-1q1.7-1 3.4-2.5q1.7-1.4 3.1-3q1.5-1.5 2.5-2.7q.3-.5.7-.5q.3.1-.2.9zM492.2 183.2q0 .4-.1 1.2q-.1.9-.3 1.9q-.1 1-.2 2q-.1 1-.1 1.6q-.2.1-.5.1q-.1 0-.3-.1q.2-.7.2-1.2q.1-.5.1-1.1q0-1.7-1.4-2.6q-1.4-.9-4-.9q-1.8 0-3.7.6q-1.9.6-3.9 2.1q-2 1.5-4.2 4.1q-2.1 2.5-4.4 6.4q-1.3 2.2-3.2 5.7q-1.8 3.5-4 7.5q-2.1 3.9-4.2 8q-2.2 4.2-3.9 7.7q.7 0 2.5 0q1.8 0 3.7 0q1.8 0 3.4 0q1.6 0 2.1 0q.4.2.2.8q-.3 0-1.6 0q-1.4 0-3.3 0q-1.9.1-3.8.1q-2 .1-3.7.1q-2.8 5.4-5.9 10.9q-3.1 5.5-6.2 10.6q-3.1 5.1-6.1 9.5q-3 4.3-5.6 7.6q-6.3 8.2-12.1 13.9q-5.7 5.6-10.9 9.1q-5.2 3.6-9.7 5.1q-4.6 1.6-8.7 1.6q-1.1 0-2.5-.2q-1.5-.3-2.8-1.1q-1.3-.7-2.3-2.1q-1-1.4-1.5-3.7q0-.7.1-.6q.2.1.4.5q.1.6.7 1.6q.5.9 1.7 1.9q1.1.9 2.8 1.5q1.7.7 4.1.7q3.9-.1 8.3-1.4q4.5-1.3 9.4-4.7q4.9-3.3 10.3-8.8q5.4-5.6 11.2-14.1q3.1-4.5 6.1-9.7q3-5.1 5.9-10.2q2.8-5 5.3-9.7q2.5-4.7 4.6-8.1q-3.7.2-5.8.5q-2.2.2-3.4.8q-1.3.5-2 1.6q-.7 1-1.7 2.9l-.2-.1q1.2-2.8 2.3-4.2q1.2-1.4 2.3-1.7q.6-.2 1.8-.4q1.1-.1 2.4-.2q1.4-.1 2.6-.2q1.3-.1 2.3-.1q4.2-7.8 8.2-14.5q3.9-6.6 8.2-13q2.2-3.5 4.9-6.8q2.6-3.2 5.3-5.7q2.8-2.6 5.4-4q2.7-1.5 5.2-1.5q1.7 0 3 .7q1.2.8 1.2 1.8zM485.8 229.6q-1.5 1.9-3.6 3.5q-2 1.5-4.7 1.5q-1.4 0-2.8-.7q-1.4-.7-2.3-2.1q-.6 1.3-1.5 3.1q-.9 1.7-2.2 3.4q-1.3 1.8-2.9 3.2q-1.5 1.5-3.3 2.4q-1.5.7-2.6.7q-3 0-3-2.7q0-1.6.5-3.2q.6-1.6 1.4-3.1q.9-1.5 1.9-2.9q.9-1.4 1.8-2.2q1.8-2 4.1-3.3q2.3-1.4 4.9-1.6q.2-.7.5-1.6q.3-.9 1.2-1.1q.4-.1.8-.1q.5-.1.8-.3q.3-.2.5 0q.3.1.1.4q-.6 1-.9 2.4q-.3 1.4-.3 3.1q0 2.4.9 4q.9 1.5 3.1 1.5q2.2 0 4-1.5q1.8-1.4 3-3.1q.1-.4.5-.3q.4.2.1.6zM471.7 230.1q-.1-.7-.2-1.7q-.1-1.1-.1-2q0-.4-.3-.4q-1 0-2 .6q-1 .7-2 1.7q-1 1.1-2.1 2.4q-1 1.4-1.8 2.8q-1.1 1.9-2 4.1q-.9 2.2-.8 4.1q0 .6.2 1.1q.2.5.9.5q1.5 0 3.2-1.6q1.7-1.6 3.2-3.8q1.5-2.1 2.6-4.4q1.1-2.2 1.2-3.4zM497.7 226.7q-.5.6-1.1 1.4q-.5.9-.7 1.3q-.1.2-.4.2q0 0-.2-.2q-.2-.3-.5-.6q-.3-.3-.8-.5q-.5-.3-1.4-.3q-1.1 0-2.5.8q-1.4.8-2.4 1.7q-1.6 1.3-2.8 3q-1.3 1.6-2.4 3.3q-1.1 1.8-2.1 3.6q-1 1.8-2.2 3.7q-.1.2-.5.2q-.2 0-.7-.5q-.6-.5-.6-.7q0-.5.6-1.6q1.4-2.3 2.8-4.8q1.4-2.4 2.6-4.5q1.2-2.1 2.2-3.7q.9-1.6 1.3-2.3q.4-.8.5-.8q.2 0 .9.4q.7.4.7 1.2q0 .3-.3.8q-.3.6-.7 1.3q-.4.6-.7 1.2q-.4.6-.5.9q-.3.4-.1.4q.2 0 .4-.3q.9-.8 2.1-1.8q1.2-1.1 2.6-1.9q1.3-.9 2.7-1.5q1.3-.6 2.3-.6q.8 0 1.3.4q.6.3.6.8z" fill="#e6edf3"/><path d="M566.2 187.5q0 .5-.5 1q-.5.5-.7 1.4q-.2.6-.6.6q-.3 0-.5-.1q-.3-.1-.7-.3q-.3-.2-.9-.3q-.5-.1-1.6-.1q-1.4 0-2.8.4q-1.5.3-2.7 1.1q-2.4 1.5-5.1 4.4q-2.8 2.8-5.1 6.1q-5.7 8.1-10 15.2q-4.3 7.1-7.2 12.7q-2.8 5.6-4.3 9.6q-1.4 4-1.4 5.8q0 1.5.6 2.4q.6.9 2.1.9q2.3 0 4.4-1.4q2-1.5 3.9-3.6q1.9-2.2 3.4-4.8q1.5-2.7 2.7-5q.1-.3.5-.2q.4.1 0 .7q-1.6 3-3.3 5.8q-1.8 2.8-3.7 4.8q-1.9 2.1-4 3.3q-2 1.2-4.1 1.2q-2.3 0-3.4-1.2q-1.1-1.3-1.1-3.2q0-2.1.8-4.4q.8-2.3 2.5-5.7q-2.4 2.9-4.1 4.8q-1.8 2-3.2 3.1q-1.3 1.1-2.3 1.5q-1 .5-1.8.5q-1.2 0-1.6-.6q-.4-.7-.4-1.7q0-.8.4-2q.4-1.2 1.2-2.4q3.2-5.1 7-8.3q3.9-3.3 9.6-4.3q4.1-7.1 7.8-12.8q3.7-5.7 8.2-11.2q3.6-4.5 7.2-8q3.6-3.5 7.5-5.3q2.9-1.4 5-1.4q1 0 1.6.3q.7.2.7.7zM527.5 226.5q-3.2.1-5 1.2q-1.7 1.2-3.1 2.9q-3.2 4-4.6 6.8q-1.3 2.9-1.3 4.2q0 .4.3.6q.4.2.5.2q.6 0 2.2-1.3q1.6-1.3 3.5-3.4q1.9-2.2 3.9-5.1q2.1-2.9 3.6-6.1zM579 238.7q-3.2 3.4-6.7 5.5q-3.5 2.1-7.7 2.1q-1.6 0-2.3-.9q-.6-.9-.6-2.3q0-1.5.7-3.6q.6-2 1.8-4.5q-1 1.4-2.1 2.8q-1.2 1.4-2.3 2.4q-1.2 1.1-2.3 1.7q-1.1.7-2.1.7q-1.9 0-1.9-1.9q0-.7.7-2.3q.8-1.6 2.8-4.8q.9-1.4 1.9-3q.9-1.6.9-2.8q0-.7-.5-1.3q-.6-.5-2-.5q-1.9 0-4.3.7q-2.5.8-4.2 1.5q0 1.4-.9 4.1q-.9 2.7-2.5 5.4q-1.7 2.7-3.7 4.8q-2.1 2-4.4 2q-1.1 0-1.8-.7q-.7-.6-.7-1.8q0-2.3 1-4.7q1.1-2.4 2.6-4.4q1.5-2.1 3.3-3.6q1.8-1.6 3.3-2.4q-.2-.3-.2-.9q0-.2.1-.4q.1-.3.4-.3q.4.4.8.5q.4 0 1.1 0q1.5 0 3.8-.2q2.4-.2 4.6-.2q3.3 0 4.5 1q1.1.9 1.1 3q0 1-.6 2.6q-.6 1.5-1.7 3.4q-1.2 2-1.8 3.2q-.6 1.2-.6 1.9q0 .7.6.7q.6 0 1.7-.9q1.2-1 2.4-2.3q1.2-1.2 2.3-2.6q1.1-1.4 1.7-2.4q.8-1.5 1.7-3.1q1-1.6 2.1-3.2q.4-.5 1.2-.7q.8-.3 1.8-.4q.8 0 .8.3q-.4.2-.8.5q-.4.3-.9 1q-1.4 2.2-2.6 4.5q-1.2 2.3-2.1 4.4q-.9 2-1.4 3.6q-.4 1.6-.4 2.5q0 1.2.5 2q.5.9 1.8.9q2.2 0 5.1-1.5q3-1.5 6.7-5.5q.3-.2.3.4zM546.9 229.7q0-.2 0-.6q0-.3-.1-.6q-.3-.1-.8-.5q-.4-.3-.6-.6q-1.2.4-2.6 2q-1.4 1.6-2.5 3.7q-1.2 2.1-2 4.4q-.8 2.3-.8 3.9q0 .9.4 1.3q.4.5.9.5q.9 0 2.3-1.2q1.5-1.2 2.7-3.1q1.3-2 2.2-4.3q.9-2.4.9-4.9zM623.4 189.3q0 1.3-.1 1.7q-.1.5-.3.2q-.5-.4-1.2-1q-.7-.5-2.5-.5q-1.5 0-2.8.2q-1.3.1-2.6.6q-1.3.5-2.8 1.4q-1.4.9-3.2 2.5q-2.5 2.1-5.5 6.2q-3 4.1-6 9q-3 4.9-5.7 10q-2.8 5-4.8 9q-.7 1.4-1.5 3.2q-.8 1.8-1.4 3.7q-.7 1.8-1.1 3.4q-.4 1.5-.4 2.3q0 2.3 1.5 2.3q.9 0 2.1-.9q1.2-.9 2.3-2.6q1.1-1.6 1.9-4q.8-2.5.8-5.5q0-1-.2-1.7q-.1-.6-.3-1q0-.5.6-1.1q.3-.3.8-.8q.5-.4.9-.7q.3 0 .4.2q0 1.7.6 2.8q.7 1.2 1.6 1.9q1 .7 2.2 1.1q1.1.3 2.1.3q1.5 0 3.2-.5q1.7-.4 3.4-1.5q.5-.3.6 0q.1.3-.3.5q-2.7 1.4-5 2.1q-2.2.7-4.2.7q-1.6 0-2.9-.7q-1.3-.8-2-1.7q0 3.2-1.1 5.9q-1 2.6-2.6 4.4q-1.5 1.9-3.3 2.9q-1.8 1-3.2 1q-1.4 0-2.3-.9q-.9-.8-.9-2.6q0-1.3.6-3.3q.6-2 1.5-4q.9-2 1.9-3.8q.9-1.8 1.5-2.9q2.3-4.3 4.9-8.7q2.7-4.4 5.6-8.7q2.9-4.4 6.2-8.4q3.3-4.1 6.9-7.5q1-.9 2.6-2.2q1.6-1.2 3.4-2.4q1.8-1.1 3.6-1.9q1.8-.8 3.3-.8q1.6 0 2.4.8q.8.9.8 2zM618.9 213q-.7.1-1.5.6q-.9.5-1.3 1.2q-2 2.7-3.8 5.7q-1.8 2.9-3.5 5.9h10.5q.3.2.3.3q0 .2-.2.3q-.7 0-2 0q-1.4.1-3 .2q-1.6.1-3.3.1q-1.7.1-3 .2q-2.4 4.3-3.7 7.2q-1.2 3-1.2 5.2q0 3.1 2.8 3.1q1.3 0 3.1-.7q1.7-.8 3.7-2q.2-.2.5.1q.2.3-.2.5q-2.9 1.8-5.4 2.7q-2.4.8-5 .8q-1.3 0-2.3-.8q-1.1-.8-1.1-2.7q0-1.7 1.6-5.1q1.5-3.3 4.5-8.1q-1.1.1-2.5.2q-1.5.1-1.8.1q-.4 0-.4-.3q.3-.6 1.1-1.2l4.3-.1q.8-1.3 1.7-2.8q1-1.6 1.9-3.2q.9-1.6 1.9-3q1-1.5 1.8-2.8q.9-.4 2.5-1.1q1.7-.7 3-1.1q.2 0 .2.2q.1.2-.2.4zM624.9 240.3q0 .4-.3 1.1q-.4.7-.9 1.4q-.6.7-1.3 1.2q-.6.4-1.3.4q-.6 0-1.1-.3q-.4-.4-.4-1q0-1.7 1.1-3q1.2-1.3 2.6-1.3q.4 0 1 .3q.6.3.6 1.2z" fill="#7fa9d8"/></g><g><animate attributeName="opacity" dur="1.620s" fill="freeze" keyTimes="0;0.6913;1" values="0;0;1"/><path d="M478.5 284.6h21v-.4h-21z" fill="#6b737d"/><path d="M507.2 290c.8-.1 2.3-.1 3.1-.1c.8 0 2.3 0 3.1.1v-.7h-.5c-1.7 0-1.7-.2-1.7-.9v-5.4h2.4c.4 0 1.2 0 2 .8c.8.7.8 1.4.8 2.8c0 1.3 0 2.2.8 3c.9.7 2 .9 2.7.9c1.6 0 2-1.8 2-2.3c0-.2 0-.4-.3-.4c-.2 0-.2.2-.2.3c-.2 1.5-.9 1.9-1.4 1.9c-1.1 0-1.2-1.1-1.5-3l-.3-1.7c-.4-1.3-1.4-2-2.6-2.4c2.1-.5 3.7-1.8 3.7-3.5c0-2-2.4-3.7-5.5-3.7h-6.6v.6h.5c1.7 0 1.7.2 1.7 1v11.1c0 .7 0 .9-1.7.9h-.5zM511.2 282.6v-5.5c0-.4 0-.7.5-.7c.2-.1.8-.1 1.2-.1c1.9 0 4.3.1 4.3 3.1c0 1.5-.6 3.2-3.7 3.2zM524 290c1.3-.1 1.9-.1 2.2-.1h.1c.8 0 1.7.1 2.5.1v-.5h-.3c-1 0-1.3-.2-1.3-.9v-7.9c0-.8.3-.9 1.4-.9h.2v-.6c-.8 0-1.6.1-2.4.1c-.8 0-1.6-.1-2.4-.1v.6h.2c1.1 0 1.4.1 1.4.9v7.9c0 .7-.3.9-1.4.9h-.2zM531.9 284.6c0 3.2 2.8 5.7 5.9 5.7c2.8 0 4.3-2.3 4.3-4c0-.2 0-.3-.3-.3c-.2 0-.2.3-.2.5c-.2 1.8-1.8 3.2-3.7 3.2c-1.7 0-4.2-1-4.2-5.1c0-4.2 2.7-5.1 4.2-5.1c1.9 0 3.1 1.5 3.5 2.8c.2.6.2 1.1.4 1.1c.3 0 .3-.2.3-.5v-3.5c0-.2 0-.4-.2-.4c-.2 0-.4.2-1.1 1.2c-.9-.8-1.9-1.3-3.1-1.3c-2.9 0-5.8 2.4-5.8 5.7zM545.4 290c1.1 0 1.8-.1 2.2-.1c.8 0 1.6.1 2.3.1v-.5h-.1c-1.3 0-1.4-.2-1.4-1.1v-3.7h5v3.6c0 1 0 1.2-1.4 1.2h-.1v.5c1.1 0 1.8-.1 2.2-.1c.8 0 1.6.1 2.4.1v-.5h-.2c-1 0-1.3-.2-1.3-.9v-7.9c0-.8.3-.9 1.3-.9h.2v-.6c-.8 0-1.6.1-2.3.1c-.8 0-1.6-.1-2.3-.1v.6h.1c1.2 0 1.4.1 1.4.9v3.4h-5v-3.3c0-.8.1-1 1.4-1h.1v-.6c-1.1.1-1.7.1-2.2.1c-.8 0-1.5-.1-2.3-.1v.6h.1c1.1 0 1.4.1 1.4.9v7.9c0 .7-.4.9-1.4.9h-.1zM559.3 290c.5 0 1.1-.1 1.6-.1c.6 0 1.1.1 1.7.1v-.5c-.6-.1-.9-.4-.9-1c0-.4.3-1.1.7-2h4.3c.6 1.7.9 2 .9 2.4c0 .6-.8.6-1.1.6v.5c.8 0 1.5-.1 2.3-.1c.6 0 1.3.1 2 .1v-.5c-1.2-.1-1.4-.1-1.8-1.2l-3.4-8.8c-.1-.2-.2-.6-.5-.6c-.4 0-.5.3-.6.6l-3 7.9c-.5 1.2-.8 2-2.2 2.1zM562.6 285.9l2-5l1.9 5zM573.7 290c1.2-.1 1.8-.1 2.1-.1c.8 0 1.6.1 2.4.1v-.5h-.1c-1.3 0-1.5-.2-1.5-1.1v-3.5h1.5c.1 0 .2-.1.4-.1c1.3 0 2.2.7 2.2 2.1v1c0 2.3 2.3 2.4 2.8 2.4c1.4 0 1.7-1.2 1.7-1.7c0-.3-.2-.3-.2-.3c-.4 0-.3.3-.4.6c-.1.4-.4.9-1 .9c-.8 0-.9-1.2-1.3-2.7c-.1-.8-.3-1.8-1.9-2.5c2.5-.7 2.7-2 2.7-2.5c0-1-1-2.9-4.7-2.9h-4.7v.6h.1c1.1 0 1.4.1 1.4.9v7.9c0 .7-.4.9-1.4.9h-.1zM576.6 284.4v-3.7c0-.9.2-.9 1.1-.9h.7c2.4 0 2.9.9 2.9 2.3c0 2-1.5 2.3-3.1 2.3zM587.6 290h5.6c.3 0 .6 0 .9 0c2.8-.4 4.6-2.8 4.6-5.3c0-2.4-1.7-5.5-5.4-5.5h-5.7v.6h.1c1 0 1.4.1 1.4.9v7.9c0 .7-.4.9-1.4.9h-.1zM590.5 288.6v-7.9c0-.7.1-.9.9-.9h1.5c.5 0 2.2 0 3.2 1.5c.7 1 .8 2.3.8 3.5c0 1.2-.1 2.5-.9 3.4c-1.1 1.2-2.4 1.2-3.1 1.3h-1.6c-.7 0-.8-.3-.8-.9zM610 290c.7-.1 2.3-.1 3.2-.1c.8 0 2.7 0 3.5.1v-.7h-.7c-2 0-2-.2-2-1v-5.1h1.8c2 0 2.2.6 2.2 2.4h.6v-5.5h-.6c0 1.7-.2 2.4-2.2 2.4h-1.8v-5.3c0-.7 0-.8 1-.8h2.6c3.1 0 3.6 1.1 4 4h.5l-.6-4.7h-11.5v.7h.5c1.6 0 1.6.2 1.6 1v11c0 .7 0 .9-1.6.9h-.5zM625.1 290h9.6l.6-4.1h-.5c-.4 2.9-1 3.6-3.8 3.6h-1.7c-1 0-1.1 0-1.1-1v-3.8h1.2c1.7 0 2 .3 2 1.8h.6v-4.2h-.6c0 .5 0 .9-.2 1.3c-.3.5-1 .6-1.9.6h-1.1v-3.5c0-.9.1-.9 1.2-.9h1.5c2.4 0 3.1.4 3.4 3.1h.6l-.4-3.6h-9.4v.5h.1c1.1 0 1.4.1 1.4.9v7.9c0 .7-.3.9-1.3.9h-.2zM637.6 279.8c1 0 1.3 0 1.9.8l3 4.5c.4.6.4.6.4 1.1v2.3c0 .8-.2 1-1.4 1h-.1v.5c1.2-.1 1.8-.1 2.1-.1h.1c.7 0 1.5.1 2.3.1v-.5h-.1c-1.2 0-1.4-.2-1.4-1v-2.5c0-.4.1-.5 2.6-4.2c.6-.8 1.2-2 2.7-2v-.6c-.5 0-1 .1-1.5.1c-.6 0-1.2-.1-1.7-.1v.6c.2 0 .6.1.6.6c0 .5-.1.4-2.9 4.6c-2-3-3.1-4.5-3.1-4.8c0-.3.3-.4.8-.4v-.6c-.7 0-1.5.1-2.3.1c-.6 0-1.3-.1-2-.1zM652.2 290c.6 0 1.2-.1 1.8-.1c.6 0 1.2.1 1.9.1v-.5c-1.3-.1-1.6-.8-1.6-1.7v-7.4c.3.3.5.7.8 1l6 8.2c.1.3.2.4.4.4c.2 0 .3-.1.3-.5v-8.1c0-1 .3-1.6 1.5-1.6v-.6c-.6 0-1.2.1-1.8.1c-.6 0-1.2-.1-1.8-.1v.6c1.5 0 1.5.9 1.5 1.6v6.1l-5.4-7.5c-.6-.7-.6-.8-1-.8h-2.6v.6h.1c.6 0 .9 0 1.4.1v7.8c0 .7.1 1.7-1.5 1.8zM666.4 290c.6 0 1.2-.1 1.8-.1c.6 0 1.3.1 1.9.1v-.5c-1.6-.1-1.6-1.1-1.6-1.8v-7.8l3.9 9.5c.1.2.2.5.5.6c.2 0 .3-.3.4-.5l3.6-8.7c.1-.3.2-.6.4-1c0 .2 0 .4 0 .6v8.1c0 .8-.3 1-1.4 1h-.1v.5c.7 0 1.4-.1 2.1-.1c.8 0 1.5.1 2.3.1v-.5h-.2c-1 0-1.4-.2-1.4-.9v-7.9c0-.8.4-.9 1.4-.9h.2v-.6h-2.7c-.5 0-.5.2-.8.8l-3 7.4l-.4 1l-.4-.9l-3-7.5c-.3-.6-.3-.8-.8-.8h-2.7v.6h.2c1.2 0 1.4.1 1.4.9v7c0 .7 0 1.7-1.6 1.8zM683.1 290c.5 0 1-.1 1.5-.1c.6 0 1.2.1 1.8.1v-.5c-.6-.1-.9-.4-.9-1c0-.4.3-1.1.7-2h4.3c.6 1.7.9 2 .9 2.4c0 .6-.9.6-1.1.6v.5c.7 0 1.5-.1 2.2-.1c.7 0 1.4.1 2.1.1v-.5c-1.2-.1-1.4-.1-1.8-1.2l-3.4-8.8c-.1-.2-.2-.6-.6-.6c-.3 0-.4.3-.5.6l-3 7.9c-.5 1.2-.8 2-2.2 2.1zM686.4 285.9l1.9-5l2 5zM697.4 290c.6 0 1.2-.1 1.8-.1c.6 0 1.2.1 1.8.1v-.5c-1.2-.1-1.5-.8-1.5-1.7v-7.4c.3.3.5.7.8 1l6 8.2c.1.3.2.4.4.4c.1 0 .3-.1.3-.5v-8.1c0-1 .3-1.6 1.5-1.6v-.6c-.6 0-1.2.1-1.8.1c-.6 0-1.2-.1-1.8-.1v.6c1.5 0 1.5.9 1.5 1.6v6.1l-5.5-7.5c-.5-.7-.5-.8-.9-.8h-2.6v.6h.1c.6 0 .9 0 1.4.1v7.8c0 .7 0 1.7-1.5 1.8z" fill="#9198a1"/></g></svg>